<svg width="21" height="20" viewBox="0 0 21 20" fill="none" xmlns="http://www.w3.org/2000/svg">
<path opacity="0.4" d="M17.5278 5.78364C17.5278 6.23364 17.2862 6.64195 16.9028 6.85028L15.4528 7.63362L14.2195 8.29199L11.6612 9.6753C11.3862 9.8253 11.0862 9.90031 10.7778 9.90031C10.4695 9.90031 10.1695 9.8253 9.89451 9.6753L4.65283 6.85028C4.2695 6.64195 4.02783 6.23364 4.02783 5.78364C4.02783 5.33364 4.2695 4.92529 4.65283 4.71695L6.2945 3.83362L7.60284 3.12531L9.89451 1.89199C10.4445 1.59199 11.1112 1.59199 11.6612 1.89199L16.9028 4.71695C17.2862 4.92529 17.5278 5.33364 17.5278 5.78364Z" fill="white"/>
<path opacity="0.4" d="M9.02788 10.658L4.15288 8.21633C3.77788 8.02466 3.34455 8.04966 2.98622 8.26633C2.62788 8.48299 2.41956 8.86635 2.41956 9.28302V13.8913C2.41956 14.6913 2.86121 15.408 3.57788 15.7663L8.45288 18.1997C8.61955 18.283 8.80289 18.3247 8.98623 18.3247C9.20289 18.3247 9.41956 18.2664 9.61123 18.1414C9.96956 17.9247 10.1779 17.5413 10.1779 17.1247V12.5164C10.1862 11.733 9.74455 11.0163 9.02788 10.658Z" fill="white"/>
<path opacity="0.4" d="M19.1362 9.29172V13.9C19.1362 14.6917 18.6945 15.4083 17.9779 15.7667L13.1029 18.2083C12.9362 18.2917 12.7528 18.3334 12.5695 18.3334C12.3528 18.3334 12.1362 18.2751 11.9362 18.1501C11.5862 17.9334 11.3695 17.55 11.3695 17.1334V12.5333C11.3695 11.7333 11.8112 11.0167 12.5279 10.6583L14.3195 9.76667L15.5695 9.14167L17.4029 8.22502C17.7779 8.03336 18.2112 8.05002 18.5695 8.27502C18.9195 8.49169 19.1362 8.87505 19.1362 9.29172Z" fill="white"/>
<path d="M15.4528 7.63331L14.2194 8.29168L6.29443 3.83331L7.60277 3.125L15.2528 7.44166C15.3361 7.49166 15.4028 7.55831 15.4528 7.63331Z" fill="white"/>
<path d="M15.5695 9.1416V11.0333C15.5695 11.375 15.2861 11.6583 14.9445 11.6583C14.6028 11.6583 14.3195 11.375 14.3195 11.0333V9.7666L15.5695 9.1416Z" fill="white"/>
</svg>
