<svg width="25" height="25" viewBox="0 0 25 25" fill="none" xmlns="http://www.w3.org/2000/svg">
<path opacity="0.4" d="M12.0938 22.5C17.6166 22.5 22.0938 18.0228 22.0938 12.5C22.0938 6.97715 17.6166 2.5 12.0938 2.5C6.5709 2.5 2.09375 6.97715 2.09375 12.5C2.09375 18.0228 6.5709 22.5 12.0938 22.5Z" fill="white"/>
<path d="M13.1531 12.4999L15.4531 10.1999C15.7431 9.90986 15.7431 9.42986 15.4531 9.13986C15.1631 8.84986 14.6831 8.84986 14.3931 9.13986L12.0931 11.4399L9.79312 9.13986C9.50312 8.84986 9.02312 8.84986 8.73313 9.13986C8.44313 9.42986 8.44313 9.90986 8.73313 10.1999L11.0331 12.4999L8.73313 14.7999C8.44313 15.0899 8.44313 15.5699 8.73313 15.8599C8.88313 16.0099 9.07312 16.0799 9.26312 16.0799C9.45312 16.0799 9.64312 16.0099 9.79312 15.8599L12.0931 13.5599L14.3931 15.8599C14.5431 16.0099 14.7331 16.0799 14.9231 16.0799C15.1131 16.0799 15.3031 16.0099 15.4531 15.8599C15.7431 15.5699 15.7431 15.0899 15.4531 14.7999L13.1531 12.4999Z" fill="white"/>
</svg>
