<svg width="20" height="21" viewBox="0 0 20 21" fill="none" xmlns="http://www.w3.org/2000/svg">
<path fill-rule="evenodd" clip-rule="evenodd" d="M9.99923 20.517C7.68569 20.5169 5.44378 19.7145 3.6555 18.2467C1.86722 16.7789 0.64321 14.7364 0.192023 12.4673C-0.259164 10.1982 0.0903901 7.84279 1.18113 5.80251C2.27186 3.76222 4.03629 2.16325 6.17378 1.27804C8.31127 0.392831 10.6896 0.276147 12.9034 0.947871C15.1173 1.6196 17.0298 3.03817 18.315 4.96188C19.6002 6.8856 20.1787 9.19543 19.9518 11.4978C19.7249 13.8002 18.7067 15.9527 17.0707 17.5885C16.1442 18.52 15.0422 19.2585 13.8283 19.7612C12.6145 20.2639 11.313 20.5208 9.99923 20.517Z" fill="url(#paint0_linear_351_61696)"/>
<path fill-rule="evenodd" clip-rule="evenodd" d="M19.3118 10.5168C19.3118 12.3585 18.7657 14.1588 17.7426 15.6901C16.7194 17.2215 15.2652 18.415 13.5637 19.1199C11.8622 19.8248 9.98995 20.0093 8.18362 19.6501C6.37728 19.291 4.71801 18.4042 3.41561 17.1021C2.1132 15.7999 1.22617 14.1408 0.866652 12.3346C0.507139 10.5283 0.691297 8.65599 1.39584 6.95438C2.10038 5.25277 3.29367 3.79829 4.82482 2.77484C6.35596 1.75139 8.1562 1.20494 9.99789 1.20459C11.2209 1.20436 12.432 1.44505 13.5621 1.91293C14.6921 2.3808 15.7188 3.06669 16.5837 3.93143C17.4487 4.79617 18.1347 5.82282 18.6028 6.95274C19.0709 8.08266 19.3118 9.29372 19.3118 10.5168Z" fill="white"/>
<path fill-rule="evenodd" clip-rule="evenodd" d="M19.0096 10.517C19.0096 12.2979 18.4815 14.0388 17.4921 15.5196C16.5028 17.0004 15.0965 18.1546 13.4512 18.8362C11.8059 19.5178 9.99542 19.6962 8.24871 19.3489C6.502 19.0016 4.89749 18.1441 3.63808 16.885C2.37866 15.6258 1.5209 14.0215 1.17325 12.2748C0.825593 10.5282 1.00366 8.71769 1.68494 7.07225C2.36622 5.42681 3.52011 4.02033 5.00071 3.03066C6.48131 2.04098 8.22212 1.51256 10.003 1.51221C11.1857 1.51197 12.3568 1.74472 13.4496 2.19715C14.5423 2.64957 15.5352 3.31283 16.3715 4.14902C17.2079 4.98522 17.8713 5.97798 18.324 7.07061C18.7766 8.16323 19.0096 9.33433 19.0096 10.517Z" fill="white"/>
<path fill-rule="evenodd" clip-rule="evenodd" d="M18.6738 10.5171C18.6739 12.2316 18.1657 13.9077 17.2133 15.3334C16.261 16.7591 14.9072 17.8703 13.3233 18.5266C11.7394 19.1829 9.99645 19.3548 8.31483 19.0206C6.63322 18.6864 5.08848 17.861 3.87595 16.6488C2.66342 15.4367 1.83756 13.8922 1.50279 12.2107C1.16803 10.5292 1.3394 8.78614 1.99523 7.20202C2.65106 5.6179 3.7619 4.26383 5.18728 3.31102C6.61266 2.35822 8.28856 1.84947 10.0031 1.84912C11.1416 1.84877 12.269 2.07272 13.321 2.50817C14.373 2.94362 15.3288 3.58204 16.134 4.38698C16.9392 5.19191 17.5779 6.14759 18.0137 7.19941C18.4495 8.25124 18.6738 9.37861 18.6738 10.5171Z" fill="black"/>
<path fill-rule="evenodd" clip-rule="evenodd" d="M7.34523 11.9634C7.34523 11.9803 7.35238 11.9963 7.35685 12.0133L7.34612 12.0569C7.33956 12.0422 7.3361 12.0263 7.33594 12.0102C7.33579 11.9942 7.33895 11.9782 7.34523 11.9634Z" fill="#585858"/>
<path d="M16.3281 10.269L16.3666 10.277L16.3281 10.2378V10.269Z" fill="#020202"/>
<path d="M7.75813 10.3049C8.03144 10.0615 8.33474 9.85404 8.66066 9.68752C8.66066 9.68752 8.66066 9.68306 8.66689 9.68752C8.55964 9.7706 8.4573 9.85984 8.36041 9.9548C8.17581 10.1259 8.00786 10.3142 7.85881 10.517C7.5567 10.9413 7.37869 11.4414 7.34473 11.9612C7.34473 11.979 7.32602 12.0004 7.35631 12.0111C7.36344 11.9835 7.36968 11.955 7.3777 11.9274C7.4761 11.6434 7.6393 11.3862 7.85435 11.1763C8.15331 10.8572 8.51813 10.607 8.92349 10.443C8.94041 10.4368 8.9618 10.4136 8.97783 10.4368C8.99387 10.46 8.96625 10.4689 8.95734 10.4831C8.79286 10.733 8.64781 10.9951 8.52345 11.2672C8.45918 11.4063 8.40932 11.5517 8.37466 11.7011C8.44416 11.6966 8.50652 11.6886 8.56978 11.6868C8.65694 11.6818 8.74437 11.6854 8.83083 11.6975H11.5812C11.4217 11.5193 11.2533 11.3509 11.0805 11.1861C11.0582 11.1647 10.8381 10.9108 11.0457 10.5517C11.0457 10.5517 11.0021 10.3646 11.003 10.3629C11.0635 10.2381 11.354 8.96318 11.5295 8.62284C11.5055 8.81172 11.5455 8.93289 11.6435 9.02466V8.57027L11.3763 8.21389C10.4158 7.80317 9.02416 8.50434 8.65531 8.78143C8.20182 9.12177 7.68329 9.63674 7.3973 10.1562C7.21727 10.5169 7.07371 10.8948 6.96875 11.2841C7.02603 11.1873 7.08849 11.0936 7.15585 11.0034C7.32923 10.7483 7.53131 10.514 7.75813 10.3049Z" fill="white"/>
<path fill-rule="evenodd" clip-rule="evenodd" d="M16.4606 9.9104C16.4352 9.78477 16.3671 9.6718 16.2679 9.59062C16.1687 9.50944 16.0445 9.46504 15.9163 9.46492C15.771 9.45601 15.6971 9.38563 15.5982 9.3197C15.5121 9.26755 15.4228 9.22083 15.3309 9.17982C15.2543 9.13082 15.1875 9.05687 15.1091 9.00163C15.0307 8.94639 14.8926 8.90363 14.8249 8.82344C14.7005 8.68372 14.6005 8.5241 14.5291 8.35124C14.3954 7.98595 14.1335 7.73916 13.8439 7.50573C13.6346 7.33734 13.4234 7.16985 13.2274 6.98542C12.9841 6.75729 12.8134 6.46262 12.7365 6.13813C12.7302 6.11407 12.7204 6.09002 12.7124 6.06685H12.6759C12.6759 6.2005 12.6661 6.33414 12.6759 6.46867C12.6857 6.6032 12.7222 6.72883 12.749 6.86692C12.2322 6.61924 11.85 6.23435 11.5301 5.77017C11.5647 5.93804 11.621 6.10068 11.6976 6.25395C11.9577 6.74529 12.3813 7.13036 12.8951 7.34269L13.4947 7.58859C13.3577 7.58049 13.2213 7.56322 13.0866 7.53692C12.2871 7.41903 11.5095 7.18334 10.7791 6.83752C10.2115 6.56044 9.69122 6.22366 9.38563 5.62851C9.3869 5.76523 9.40273 5.90142 9.43285 6.03478C9.52194 6.40898 9.83912 6.55242 10.1456 6.70566C9.37137 6.56846 8.77889 6.17555 8.30224 5.61336C8.19121 5.48242 8.0877 5.34529 7.99219 5.20264C7.99723 5.24259 8.00711 5.28178 8.02159 5.31935C8.07772 5.44497 8.13741 5.56703 8.19978 5.68553C8.4297 6.12533 8.76676 6.50008 9.17982 6.77516C9.49702 6.97548 9.82742 7.15408 10.1688 7.30972C10.4322 7.26291 10.7024 7.27037 10.9628 7.33165C11.2233 7.39293 11.4685 7.50674 11.6834 7.6661C11.3065 7.5042 10.8985 7.42753 10.4886 7.44158L10.5955 7.48168C10.7399 7.53781 10.886 7.58859 11.033 7.63937C11.1951 7.69461 11.3582 7.73827 11.5497 7.79974C11.3452 7.82356 11.1428 7.86227 10.9439 7.91557C10.8478 7.96021 10.7463 7.99197 10.6419 8.01001C10.8949 8.02337 11.131 8.08128 11.4865 8.29155C11.066 8.09821 10.7844 8.13385 10.3354 8.12672C9.81016 8.33003 9.3307 8.63593 8.92501 9.02658C9.16031 8.97235 9.4019 8.95047 9.64311 8.96154C9.31392 9.1344 9.00265 9.33943 8.71385 9.57362C8.75779 9.60792 8.79343 9.65169 8.81811 9.70167C8.84279 9.75164 8.85588 9.80655 8.85641 9.86228H9.57718V10.1848C9.65024 10.0957 9.73042 10.0137 9.80972 9.92465C9.81952 9.94069 9.82397 9.94603 9.82308 9.94781C9.81893 9.9594 9.81291 9.97024 9.80526 9.97989C9.72298 10.0918 9.64684 10.2081 9.57718 10.3283V11.1943C9.7233 11.2424 9.8703 11.2833 10.0227 11.3225C9.95177 11.1561 9.91978 10.9757 9.92911 10.7951C9.92911 10.7274 9.94514 10.6597 9.95316 10.5929C9.97322 10.8795 10.0812 11.153 10.2623 11.376H10.273C10.3193 11.3805 10.3621 11.3805 10.4102 11.3831C10.5572 11.3903 10.5358 11.9899 10.6775 12.0264C10.6775 12.0264 12.1814 12.4336 11.8518 12.0175C10.7078 10.5742 11.1488 10.118 11.3234 9.77854C11.3085 9.84995 11.3113 9.92394 11.3317 9.994C11.352 10.0641 11.3893 10.1281 11.4402 10.1804C11.5791 10.3184 11.8135 10.3897 12.0389 10.5251C12.1983 10.6214 12.128 10.5742 12.2874 10.6739C12.6705 10.8999 13.0005 11.2055 13.255 11.5702C13.4688 11.8963 13.4483 12.0014 13.1392 12.2429C13.1338 12.2429 13.1321 12.2571 13.1187 12.2928L13.5 12.2661C13.5001 12.3221 13.4862 12.3773 13.4596 12.4266C13.433 12.4759 13.3946 12.5178 13.3477 12.5485C13.2586 12.6109 13.1624 12.6581 13.0643 12.7151C13.3397 12.7552 13.6248 12.6884 13.7816 12.5164C13.8203 12.4689 13.8687 12.4301 13.9235 12.4026C13.9784 12.3752 14.0384 12.3596 14.0996 12.3569C14.151 12.3531 14.2011 12.3389 14.2468 12.3151C14.2926 12.2912 14.333 12.2584 14.3656 12.2184C14.3981 12.1785 14.4223 12.1324 14.4364 12.0828C14.4506 12.0332 14.4545 11.9813 14.448 11.9302C14.3938 11.947 14.3384 11.9595 14.2823 11.9676C14.2681 11.9659 14.2545 11.9607 14.2428 11.9527C14.231 11.9446 14.2213 11.9338 14.2146 11.9213C14.1852 11.6887 14.023 11.5533 13.8582 11.4188C13.7147 11.3003 13.5651 11.188 13.4287 11.0624C13.303 10.9502 13.2021 10.813 13.1325 10.6596C13.0628 10.5062 13.026 10.3399 13.0243 10.1714C13.0165 10.1141 12.9891 10.0612 12.9467 10.0218C12.8398 9.91752 12.724 9.82219 12.5904 9.70637C12.6107 9.70281 12.6312 9.70103 12.6518 9.70102C13.1536 9.95974 13.705 10.1077 14.2689 10.1349C14.3527 10.1299 14.4353 10.157 14.5 10.2106C14.5647 10.2641 14.6066 10.3403 14.6173 10.4236L14.7509 10.2026C14.8507 10.2873 14.9487 10.3719 15.0806 10.4859C15.1189 10.4423 15.1616 10.3906 15.2071 10.3372C15.3015 10.5554 15.1848 10.7541 15.0948 10.9733C15.371 10.8842 15.6027 10.7773 15.7122 10.5011H15.7452C15.7755 10.6169 15.8067 10.7327 15.8343 10.8575C15.9178 10.8556 15.9999 10.8363 16.0754 10.8007C16.1509 10.7651 16.2181 10.714 16.2726 10.6508C16.2905 10.6303 16.3163 10.6009 16.3377 10.6018C16.4571 10.6018 16.4936 10.5216 16.4945 10.4334C16.5033 10.2583 16.4919 10.0829 16.4606 9.9104ZM14.6689 9.21457L13.8813 8.88581C13.8609 9.01767 13.8413 9.14685 13.8208 9.27961L12.7766 8.42786L13.5651 8.75573C13.5856 8.62476 13.6052 8.49468 13.6256 8.36282L14.6681 9.21457C14.6681 9.21457 14.6698 9.21457 14.6689 9.21457Z" fill="white"/>
<path fill-rule="evenodd" clip-rule="evenodd" d="M13.4609 10.4851C14.0026 10.4343 14.441 10.5938 14.7154 11.0909C14.8113 11.2795 14.9619 11.4348 15.1475 11.5364C15.3071 11.6245 15.4951 11.6459 15.6704 11.5958C15.8457 11.5457 15.9941 11.4283 16.083 11.2691C16.099 11.2415 16.1142 11.213 16.1365 11.1738C16.2567 11.2914 16.3146 11.4143 16.2532 11.5711C16.7503 11.8099 16.8706 12.0166 16.7387 12.4077C16.5837 12.0897 16.3102 12.0701 16.0099 12.0897C15.7634 12.1097 15.5157 12.1133 15.2687 12.1003C15.1417 12.092 15.019 12.0515 14.912 11.9828C14.8049 11.9141 14.7171 11.8194 14.6566 11.7074C14.5675 11.5578 14.4882 11.4027 14.4098 11.2486C14.3232 11.0644 14.1973 10.9015 14.0409 10.7712C13.8845 10.641 13.7014 10.5467 13.5046 10.4949L13.4609 10.4851Z" fill="#B60000"/>
<path fill-rule="evenodd" clip-rule="evenodd" d="M13.4609 10.4851C14.0026 10.4343 14.441 10.5938 14.7154 11.0909C14.8113 11.2795 14.9619 11.4348 15.1475 11.5364C15.3071 11.6245 15.4951 11.6459 15.6704 11.5958C15.8457 11.5457 15.9941 11.4283 16.083 11.2691C16.099 11.2415 16.1142 11.213 16.1365 11.1738C16.2567 11.2914 16.3146 11.4143 16.2532 11.5711C16.7503 11.8099 16.8706 12.0166 16.7387 12.4077C16.5837 12.0897 16.3102 12.0701 16.0099 12.0897C15.7634 12.1097 15.5157 12.1133 15.2687 12.1003C15.1417 12.092 15.019 12.0515 14.912 11.9828C14.8049 11.9141 14.7171 11.8194 14.6566 11.7074C14.5675 11.5578 14.4882 11.4027 14.4098 11.2486C14.3232 11.0644 14.1973 10.9015 14.0409 10.7712C13.8845 10.641 13.7014 10.5467 13.5046 10.4949L13.4609 10.4851Z" fill="#673EB8"/>
<path fill-rule="evenodd" clip-rule="evenodd" d="M16.6059 12.0181C16.4621 11.9192 16.2892 11.8715 16.115 11.8827C16.0723 11.8827 16.0259 11.8827 15.9716 11.8872C15.8397 11.8952 15.6838 11.9032 15.5261 11.9032C15.437 11.9032 15.3631 11.9032 15.2882 11.8961C15.1894 11.892 15.093 11.8641 15.0073 11.8146C14.9216 11.7651 14.8493 11.6955 14.7964 11.6119C14.7127 11.4845 14.637 11.3535 14.5666 11.2297C14.469 11.0542 14.3343 10.9022 14.1719 10.7842C14.3779 10.8563 14.5516 10.9994 14.6619 11.1878C14.7671 11.3704 14.9257 11.5165 15.1163 11.6065C15.2316 11.6611 15.3576 11.6893 15.4851 11.6894C15.6052 11.6902 15.7238 11.6635 15.832 11.6113C15.9401 11.5591 16.0348 11.4828 16.1088 11.3882C16.1185 11.4074 16.1236 11.4286 16.1236 11.4502C16.1236 11.4717 16.1185 11.4929 16.1088 11.5121L16.0714 11.6012L16.1605 11.6404C16.4812 11.7731 16.5952 11.8809 16.6059 12.0181Z" fill="#B85FEE"/>
<path d="M14.1901 11.8793C14.1901 11.8793 14.2795 11.8321 14.1848 11.5122C14.1526 11.5923 14.1028 11.6642 14.0391 11.7225" fill="white"/>
<path d="M13.9885 11.6631C13.9885 11.6631 14.0779 11.6203 13.9966 11.2969C13.9616 11.3757 13.9094 11.4457 13.8438 11.5018" fill="white"/>
<path d="M13.7508 11.4579C13.7508 11.4579 13.85 11.4285 13.8116 11.0962C13.7659 11.168 13.7048 11.2288 13.6328 11.2744" fill="white"/>
<path d="M13.5242 11.2865C13.5242 11.2865 13.6234 11.2571 13.585 10.9248C13.539 10.9964 13.4781 11.0572 13.4062 11.103" fill="white"/>
<path d="M11.6788 7.65607L11.546 8.04185L11.5033 8.17103C11.2787 8.0365 11.1014 7.93048 10.9384 7.93048C10.5232 7.84138 10.2025 7.94384 9.43269 7.8102C8.70033 7.68279 8.45265 7.09744 8.36356 6.74106C8.35108 6.69206 8.34307 6.64573 8.33594 6.60742C8.45443 6.77047 9.15204 7.6721 9.99577 7.48679C10.1557 7.45143 10.3185 7.43085 10.4822 7.42531C10.892 7.41223 11.2997 7.48854 11.677 7.64894L11.6788 7.65607Z" fill="black"/>
<path d="M13.0022 7.55561C13.0022 7.55561 12.0524 7.29901 10.9922 6.2085C10.9922 6.2085 11.0813 7.01035 11.9544 7.58412" fill="#020202"/>
<path d="M16.0463 9.65296C16.0463 9.65296 16.0775 9.48724 15.7924 9.0293C15.7924 9.0293 15.828 9.46408 15.6641 9.74205" fill="#020202"/>
<path d="M11.6378 7.69888L11.5487 8.0419L11.4854 8.28424C11.2332 8.11946 10.9417 8.02476 10.6408 8.00983C10.3397 7.99557 10.0172 8.03655 9.43715 7.93588C8.57204 7.7862 8.3787 7.00306 8.33594 6.70459C8.34574 6.71706 8.35643 6.73132 8.3689 6.74557C8.59075 7.02355 9.21797 7.69888 9.95835 7.53584C10.1671 7.48978 10.3807 7.46914 10.5945 7.47437C10.9535 7.48067 11.3079 7.55693 11.6378 7.69888Z" fill="black"/>
<path d="M11.6801 7.65622L11.5019 8.29592L11.4814 8.28434C11.2292 8.11957 10.9377 8.02486 10.6368 8.00993C10.3356 7.99567 10.0131 8.03665 9.43311 7.93598C8.568 7.7863 8.37466 7.00316 8.3319 6.70469C8.32209 6.63252 8.32031 6.58887 8.32031 6.58887L8.33724 6.61381C8.45574 6.77597 9.15335 7.67849 9.99707 7.49318C10.157 7.45809 10.3199 7.43781 10.4835 7.43259C10.8933 7.41899 11.3011 7.49532 11.6783 7.65622H11.6801Z" fill="white"/>
<path fill-rule="evenodd" clip-rule="evenodd" d="M16.3313 8.26116L16.3241 8.52844L16.2457 8.45538C16.2208 8.3948 16.1941 8.336 16.1673 8.2772C16.1272 8.1881 16.0863 8.10792 16.0426 8.02506C15.9633 7.87271 15.8769 7.72481 15.7851 7.57958C15.6409 7.35397 15.4823 7.13791 15.3102 6.93276C15.14 6.7295 14.9563 6.53782 14.7605 6.35899C14.5627 6.1808 14.348 6.01686 14.1369 5.85649C13.9185 5.6982 13.6872 5.55843 13.4455 5.43864L13.564 5.77809L13.5524 5.78522C13.5319 5.76384 13.5114 5.74156 13.49 5.72018C13.3067 5.52007 13.0968 5.34592 12.8664 5.20254C12.5918 5.0495 12.2917 4.94747 11.9808 4.9014C11.832 4.87467 11.6823 4.85329 11.5211 4.82745L11.783 5.15532L11.7732 5.1669L11.6021 5.08226C11.3096 4.933 10.9954 4.83048 10.6711 4.77845C10.4029 4.74188 10.1307 4.74639 9.86389 4.79181C9.62066 4.83102 9.38011 4.88091 9.13866 4.92991C9.1253 4.92991 9.11282 4.93882 9.08966 4.94506L9.49682 5.13037C9.49635 5.1363 9.49635 5.14226 9.49682 5.14819C9.47366 5.14819 9.4496 5.14819 9.42644 5.14819C9.17341 5.15621 8.91949 5.15621 8.66735 5.17403C8.14662 5.21322 7.64797 5.40056 7.23025 5.71394C7.08414 5.81907 6.94248 5.93163 6.80527 6.05161L7.37548 6.00796C7.37548 6.0133 7.37548 6.01865 7.38172 6.02399L7.32469 6.05696C7.09305 6.18614 6.85784 6.3091 6.63065 6.44541C6.08868 6.76804 5.67052 7.26305 5.44301 7.85132C5.38421 7.99922 5.32897 8.14712 5.27908 8.2968C5.51045 8.11926 5.76051 7.96749 6.0248 7.8442C6.00787 7.86736 5.99095 7.89141 5.97313 7.91458C5.73701 8.22587 5.52834 8.55706 5.34947 8.90442C5.10019 9.3871 4.98336 9.92726 5.01091 10.4698C5.03835 10.8728 5.11924 11.2704 5.25146 11.6521C5.30458 11.3906 5.37482 11.1328 5.46173 10.8805C5.50093 11.1122 5.533 11.3314 5.57577 11.5487C5.67956 12.1302 5.87949 12.6902 6.16735 13.2059C6.4028 13.6208 6.72199 13.9822 7.10463 14.267C7.12613 14.2833 7.14945 14.2971 7.17412 14.308C7.05627 14.066 6.95911 13.8144 6.88368 13.5561C6.89793 13.5703 6.91397 13.5837 6.92733 13.5979C7.3151 14.0094 7.75336 14.3701 8.23168 14.6715C8.95523 15.1188 9.79858 15.3334 10.6479 15.2863C11.1457 15.2717 11.6374 15.1726 12.1019 14.9931C12.3212 14.9099 12.5213 14.7828 12.69 14.6198C12.7873 14.5288 12.8621 14.4163 12.9085 14.2914C12.9548 14.1665 12.9715 14.0325 12.9573 13.9C13.082 13.8109 13.2023 13.7093 13.3136 13.6077C13.4683 13.4719 13.613 13.3251 13.7466 13.1685C13.8668 13.0351 13.9733 12.89 14.0647 12.7355C14.1422 12.7186 14.2188 12.7016 14.2955 12.682C14.3886 12.6573 14.4703 12.6013 14.5271 12.5234C14.5939 12.5733 14.6599 12.6241 14.724 12.6785C14.9445 12.8563 15.1282 13.0754 15.2648 13.3235C15.3602 13.4947 15.4134 13.6862 15.4198 13.8821C15.3058 13.7039 15.1855 13.5391 14.9806 13.4456C15.2523 14.0496 15.2702 14.6751 15.1811 15.3166C15.116 15.1713 15.0255 15.0389 14.9138 14.9254C14.9057 15.2006 14.8384 15.4708 14.7167 15.7177C14.5949 15.9646 14.4215 16.1824 14.2081 16.3563C14.2472 16.2039 14.2586 16.0458 14.242 15.8894L14.2073 15.9153C13.6977 16.3629 13.092 16.6872 12.4369 16.8632C11.7097 17.0632 10.9539 17.1382 10.2016 17.0851C9.4409 17.0389 8.6908 16.8837 7.97419 16.6245C5.84572 15.8627 4.29637 13.9828 3.85713 11.833C3.5257 10.2519 3.79448 8.60418 4.61115 7.21044C5.42782 5.8167 6.73392 4.77675 8.27518 4.29305C9.81644 3.80935 11.4825 3.91652 12.9491 4.59369C14.4157 5.27087 15.5778 6.46958 16.2092 7.95645C16.2529 8.05624 16.2939 8.15781 16.3313 8.26116Z" fill="white"/>
<path d="M9.11453 10.3695C9.11453 10.3695 6.96735 12.3679 7.63734 15.2394C7.63734 15.2394 10.418 16.5206 13.089 14.8919C13.089 14.8919 12.8111 13.4067 11.6796 11.8039L10.5481 10.2002" fill="white"/>
<path d="M8.59682 14.5176C8.59682 14.5176 8.21282 13.003 9.30334 11.2969C9.30334 11.2969 8.53178 12.9549 9.07704 14.6753L8.59682 14.5176Z" fill="black"/>
<path d="M12.105 14.4895C12.105 14.4895 12.0489 13.3812 11.125 12.3379C11.125 12.3379 11.8253 13.3812 11.6382 14.6062L12.105 14.4895Z" fill="black"/>
<path fill-rule="evenodd" clip-rule="evenodd" d="M12.9857 13.2993C12.9857 13.2993 12.6836 14.9128 9.11719 15.156C9.11719 15.156 12.4591 15.5686 13.4597 13.4722" fill="black"/>
<path d="M14.2486 15.8872C14.2486 15.8872 11.974 17.3412 9.30469 16.1981C9.30469 16.1981 10.5021 17.376 13.1295 17.0365" fill="black"/>
<path d="M9.22663 16.9801C9.22663 16.9801 6.5725 16.4856 5.40625 13.8262C5.40625 13.8262 5.47485 15.5038 7.62382 17.0541" fill="black"/>
<path fill-rule="evenodd" clip-rule="evenodd" d="M16.3421 7.90234L16.3314 8.2614L16.3242 8.53046L16.2458 8.45651L15.8672 8.09746L16.0427 8.02529L16.2093 7.95669L16.3421 7.90234Z" fill="white"/>
<defs>
<linearGradient id="paint0_linear_351_61696" x1="0.00102529" y1="10.5171" x2="20.0019" y2="10.5171" gradientUnits="userSpaceOnUse">
<stop stop-color="#643DB6"/>
<stop offset="1" stop-color="#B95FEE"/>
</linearGradient>
</defs>
</svg>
