<svg width="18" height="19" viewBox="0 0 18 19" fill="none" xmlns="http://www.w3.org/2000/svg">
<path d="M12 10.175V13.325C12 15.95 10.95 17 8.325 17H5.175C2.55 17 1.5 15.95 1.5 13.325V10.175C1.5 7.55 2.55 6.5 5.175 6.5H8.325C10.95 6.5 12 7.55 12 10.175Z" fill="white"/>
<path opacity="0.4" d="M12.8253 2H9.67531C7.08781 2 6.03781 3.0275 6.00781 5.5625H8.32531C11.4753 5.5625 12.9378 7.025 12.9378 10.175V12.4925C15.4728 12.4625 16.5003 11.4125 16.5003 8.825V5.675C16.5003 3.05 15.4503 2 12.8253 2Z" fill="white"/>
</svg>
