<svg width="21" height="20" viewBox="0 0 21 20" fill="none" xmlns="http://www.w3.org/2000/svg">
<path opacity="0.4" d="M15.8889 17.0831H15.0556V16.8748C15.0556 15.9581 14.3056 15.2081 13.3889 15.2081H11.5139V13.2998C11.3056 13.3248 11.0972 13.3331 10.8889 13.3331C10.6806 13.3331 10.4722 13.3248 10.2639 13.2998V15.2081H8.38892C7.47225 15.2081 6.72225 15.9581 6.72225 16.8748V17.0831H5.88892C5.54725 17.0831 5.26392 17.3665 5.26392 17.7081C5.26392 18.0498 5.54725 18.3331 5.88892 18.3331H15.8889C16.2306 18.3331 16.5139 18.0498 16.5139 17.7081C16.5139 17.3665 16.2306 17.0831 15.8889 17.0831Z" fill="white"/>
<path opacity="0.4" d="M5.48894 9.70033C4.93894 9.49199 4.45561 9.15033 4.07227 8.76699C3.29727 7.90866 2.78894 6.88366 2.78894 5.68366C2.78894 4.48366 3.73061 3.54199 4.93061 3.54199H5.39727C5.18061 3.98366 5.05561 4.47533 5.05561 5.00033V7.50033C5.05561 8.28366 5.20561 9.02533 5.48894 9.70033Z" fill="white"/>
<path opacity="0.4" d="M18.9889 5.68366C18.9889 6.88366 18.4806 7.90866 17.7056 8.76699C17.3223 9.15033 16.8389 9.49199 16.2889 9.70033C16.5723 9.02533 16.7223 8.28366 16.7223 7.50033V5.00033C16.7223 4.47533 16.5973 3.98366 16.3806 3.54199H16.8473C18.0473 3.54199 18.9889 4.48366 18.9889 5.68366Z" fill="white"/>
<path d="M13.3889 1.66699H8.38888C6.54721 1.66699 5.05554 3.15866 5.05554 5.00033V7.50033C5.05554 10.7253 7.66388 13.3337 10.8889 13.3337C14.1139 13.3337 16.7222 10.7253 16.7222 7.50033V5.00033C16.7222 3.15866 15.2305 1.66699 13.3889 1.66699ZM13.2555 7.04199L12.7389 7.67533C12.6555 7.76699 12.5972 7.95033 12.6055 8.07533L12.6555 8.89199C12.6889 9.39199 12.3305 9.65032 11.8639 9.46699L11.1055 9.16699C10.9889 9.12533 10.7889 9.12533 10.6722 9.16699L9.91388 9.46699C9.44721 9.65032 9.08888 9.39199 9.12221 8.89199L9.17221 8.07533C9.18054 7.95033 9.12221 7.76699 9.03888 7.67533L8.52221 7.04199C8.19721 6.65866 8.33888 6.23366 8.82221 6.10866L9.61388 5.90866C9.73888 5.87533 9.88888 5.75866 9.95554 5.65033L10.3972 4.96699C10.6722 4.54199 11.1055 4.54199 11.3805 4.96699L11.8222 5.65033C11.8889 5.75866 12.0389 5.87533 12.1639 5.90866L12.9555 6.10866C13.4389 6.23366 13.5805 6.65866 13.2555 7.04199Z" fill="white"/>
<path opacity="0.4" d="M13.2556 7.04121L12.7389 7.67454C12.6556 7.76621 12.5972 7.94954 12.6056 8.07454L12.6556 8.89121C12.6889 9.39121 12.3306 9.64954 11.8639 9.46621L11.1056 9.16621C10.9889 9.12454 10.7889 9.12454 10.6722 9.16621L9.91391 9.46621C9.44724 9.64954 9.08891 9.39121 9.12224 8.89121L9.17224 8.07454C9.18057 7.94954 9.12224 7.76621 9.03891 7.67454L8.52224 7.04121C8.19724 6.65788 8.33891 6.23288 8.82224 6.10788L9.61391 5.90788C9.73891 5.87454 9.88891 5.75788 9.95558 5.64954L10.3972 4.96621C10.6722 4.54121 11.1056 4.54121 11.3806 4.96621L11.8222 5.64954C11.8889 5.75788 12.0389 5.87454 12.1639 5.90788L12.9556 6.10788C13.4389 6.23288 13.5806 6.65788 13.2556 7.04121Z" fill="white"/>
</svg>
