<svg width="21" height="20" viewBox="0 0 21 20" fill="none" xmlns="http://www.w3.org/2000/svg">
<path opacity="0.4" d="M10.111 18.3337C14.7134 18.3337 18.4444 14.6027 18.4444 10.0003C18.4444 5.39795 14.7134 1.66699 10.111 1.66699C5.50867 1.66699 1.77771 5.39795 1.77771 10.0003C1.77771 14.6027 5.50867 18.3337 10.111 18.3337Z" fill="white"/>
<path d="M10.3861 14.1669C10.2361 14.2169 9.97775 14.2169 9.82775 14.1669C8.52775 13.7252 5.61108 11.8669 5.61108 8.71685C5.61108 7.32519 6.72775 6.2002 8.11108 6.2002C8.92775 6.2002 9.65275 6.59185 10.1111 7.20852C10.5611 6.60019 11.2944 6.2002 12.1111 6.2002C13.4944 6.2002 14.6111 7.32519 14.6111 8.71685C14.6111 11.8669 11.6944 13.7252 10.3861 14.1669Z" fill="white"/>
</svg>
