<svg width="21" height="20" viewBox="0 0 21 20" fill="none" xmlns="http://www.w3.org/2000/svg">
<path opacity="0.4" d="M17.1445 5.68373L12.3444 2.3254C11.0361 1.40873 9.02778 1.45873 7.76945 2.43373L3.59445 5.69206C2.76112 6.34206 2.10278 7.6754 2.10278 8.7254V14.4754C2.10278 16.6004 3.82778 18.3337 5.95278 18.3337H14.9361C17.0611 18.3337 18.7861 16.6087 18.7861 14.4837V8.83373C18.7861 7.70873 18.0611 6.3254 17.1445 5.68373Z" fill="#743EE8"/>
<path d="M10.4445 15.625C10.1028 15.625 9.81946 15.3417 9.81946 15V12.5C9.81946 12.1583 10.1028 11.875 10.4445 11.875C10.7861 11.875 11.0695 12.1583 11.0695 12.5V15C11.0695 15.3417 10.7861 15.625 10.4445 15.625Z" fill="#743EE8"/>
</svg>
