<svg width="21" height="20" viewBox="0 0 21 20" fill="none" xmlns="http://www.w3.org/2000/svg">
<path opacity="0.4" d="M10.5557 18.3337C15.1581 18.3337 18.889 14.6027 18.889 10.0003C18.889 5.39795 15.1581 1.66699 10.5557 1.66699C5.95331 1.66699 2.22235 5.39795 2.22235 10.0003C2.22235 14.6027 5.95331 18.3337 10.5557 18.3337Z" fill="white"/>
<path d="M10.5557 11.4587C10.8973 11.4587 11.1807 11.1753 11.1807 10.8337V6.66699C11.1807 6.32533 10.8973 6.04199 10.5557 6.04199C10.214 6.04199 9.93066 6.32533 9.93066 6.66699V10.8337C9.93066 11.1753 10.214 11.4587 10.5557 11.4587Z" fill="white"/>
<path d="M11.3224 13.0164C11.2807 12.9164 11.2224 12.8247 11.1474 12.7414C11.064 12.6664 10.9724 12.6081 10.8724 12.5664C10.6724 12.4831 10.439 12.4831 10.239 12.5664C10.139 12.6081 10.0474 12.6664 9.96402 12.7414C9.88902 12.8247 9.83068 12.9164 9.78902 13.0164C9.74735 13.1164 9.72235 13.2247 9.72235 13.3331C9.72235 13.4414 9.74735 13.5497 9.78902 13.6497C9.83068 13.7581 9.88902 13.8414 9.96402 13.9247C10.0474 13.9997 10.139 14.0581 10.239 14.0997C10.339 14.1414 10.4474 14.1664 10.5557 14.1664C10.664 14.1664 10.7724 14.1414 10.8724 14.0997C10.9724 14.0581 11.064 13.9997 11.1474 13.9247C11.2224 13.8414 11.2807 13.7581 11.3224 13.6497C11.364 13.5497 11.389 13.4414 11.389 13.3331C11.389 13.2247 11.364 13.1164 11.3224 13.0164Z" fill="white"/>
</svg>
