<svg width="120" height="120" viewBox="0 0 120 120" fill="none" xmlns="http://www.w3.org/2000/svg">
<g clip-path="url(#clip0_0_2875)">
<path fill-rule="evenodd" clip-rule="evenodd" d="M60.0018 120C46.1199 120 32.6674 115.188 21.9362 106.382C11.205 97.5756 3.85922 85.3211 1.15051 71.7061C-1.5582 58.0911 0.537747 43.9581 7.08122 31.7152C13.6247 19.4724 24.2108 9.87714 37.0358 4.56449C49.8608 -0.748155 64.1312 -1.44951 77.4153 2.57995C90.6995 6.6094 102.175 15.1203 109.888 26.6626C117.6 38.2048 121.072 52.0642 119.711 65.8791C118.351 79.6941 112.242 92.6099 102.426 102.426C96.8679 108.015 90.2564 112.446 82.9742 115.462C75.6921 118.479 67.884 120.021 60.0018 120V120Z" fill="black"/>
<path fill-rule="evenodd" clip-rule="evenodd" d="M60.0017 117.755C46.6393 117.756 33.6899 113.123 23.3602 104.647C13.0305 96.1702 5.95946 84.3742 3.35203 71.2686C0.744607 58.163 2.76209 44.5587 9.06071 32.7739C15.3593 20.989 25.5494 11.7527 37.8946 6.63878C50.2397 1.52486 63.9762 0.849701 76.7633 4.72836C89.5505 8.60702 100.597 16.7995 108.021 27.9099C115.445 39.0203 118.787 52.3611 117.477 65.6592C116.168 78.9574 110.287 91.39 100.839 100.839C95.4885 106.218 89.1244 110.484 82.1147 113.387C75.105 116.291 67.589 117.776 60.0017 117.755V117.755Z" fill="url(#paint0_linear_0_2875)"/>
<path d="M100.837 60.6423C101.191 38.0914 83.197 19.5232 60.6461 19.1689C38.0952 18.8146 19.5269 36.8085 19.1727 59.3594C18.8184 81.9103 36.8123 100.479 59.3632 100.833C81.9141 101.187 100.482 83.1932 100.837 60.6423Z" fill="white"/>
<path fill-rule="evenodd" clip-rule="evenodd" d="M99.3154 59.9983C99.3154 67.7738 97.0097 75.3747 92.6899 81.8398C88.37 88.3049 82.2301 93.3439 75.0464 96.3194C67.8628 99.295 59.9581 100.074 52.332 98.5566C44.7059 97.0397 37.7008 93.2954 32.2027 87.7973C26.7046 82.2992 22.9603 75.2941 21.4434 67.668C19.9265 60.0419 20.705 52.1372 23.6806 44.9536C26.6561 37.7699 31.6951 31.63 38.1602 27.3101C44.6253 22.9903 52.2262 20.6846 60.0017 20.6846C70.4284 20.6846 80.428 24.8265 87.8007 32.1993C95.1735 39.572 99.3154 49.5716 99.3154 59.9983Z" fill="black"/>
<path d="M25.2899 18.424C25.2162 17.9654 25.3573 17.5261 25.9474 17.1188L28.2275 15.5474C29.1735 14.906 30.4274 14.332 31.6108 14.4891H31.6942C33.4868 14.7104 34.7985 15.9932 35.7734 17.4074C37.7809 20.3161 37.7777 23.074 34.8113 25.104L32.5312 26.6754C31.6108 27.3168 30.8475 26.9063 30.2863 26.0693L26.1398 20.0563C27.3263 20.6977 28.3461 19.9088 29.1703 19.3412L32.0565 23.5423L33.1982 22.7566C34.6926 21.7239 34.2405 20.3353 33.3618 19.059C32.4831 17.7826 31.3318 16.8526 29.8341 17.8852L27.4995 19.4887C26.6625 20.0916 25.4406 19.4951 25.2899 18.424Z" fill="white"/>
<path d="M36.7805 10.9133C36.8609 10.7264 36.9817 10.5596 37.1341 10.4248C37.2866 10.2901 37.467 10.1908 37.6624 10.134L40.3113 9.12702C42.8063 8.16494 44.9004 8.66843 45.9427 11.4136C46.5584 13.017 46.2409 14.4024 45.622 15.0662C44.9277 15.7632 44.0893 16.2995 43.1655 16.6376L41.8089 17.154L42.4503 18.8376C42.848 19.8798 42.6652 20.6655 41.7288 21.0215C40.7923 21.3775 40.1253 20.9125 39.7405 19.867L37.1461 13.0395C38.1498 13.9406 39.3268 13.4243 40.26 13.0683L40.8821 14.7039L42.2387 14.1908C43.3451 13.7706 43.4862 13.1998 43.2007 12.4526C42.9153 11.7054 42.4728 11.4264 41.4562 11.7567L38.6212 12.8342C37.5565 13.2415 36.3989 12.164 36.7805 10.9133ZM43.515 16.9583C44.4932 16.7245 45.3987 16.2531 46.1511 15.5858C46.2954 15.7269 46.5359 15.9385 46.738 16.147C46.8695 16.256 46.9913 16.3875 47.1292 16.5158C48.2869 17.6831 47.9181 18.7831 47.0459 19.1166C46.7415 19.219 46.4145 19.2333 46.1024 19.1579C45.7903 19.0824 45.5059 18.9202 45.282 18.6901C44.9966 18.4079 44.7369 18.1481 44.4899 17.9204L43.515 16.9583Z" fill="white"/>
<path d="M49.0531 15.9963C49.4155 14.3319 50.8426 13.4468 52.4781 13.2255L54.4023 12.9625L53.049 10.1853L52.8662 11.2051C52.7539 11.7407 52.6641 12.3083 52.6224 12.4879C51.282 12.6515 49.9799 13.2159 49.3931 14.3575C49.5021 13.8027 49.7907 12.2153 50.1018 10.7754L50.663 7.98859C50.9035 6.79561 51.5064 6.1414 52.4813 6.00992C53.4562 5.87843 54.2099 6.33061 54.7615 7.43059L58.4302 14.7135C58.7829 15.4543 58.8599 15.9001 58.6098 16.4036C58.5192 16.5708 58.3919 16.7154 58.2375 16.8265C58.0831 16.9376 57.9056 17.0122 57.7183 17.045C56.7882 17.2566 56.2783 16.8365 55.8101 15.8905L55.5824 15.4511L51.9811 15.9418C51.9265 16.1663 51.8271 17.1572 51.3846 17.6222C51.1498 17.8656 50.8384 18.0208 50.5027 18.0616C50.2922 18.1001 50.0754 18.0853 49.8721 18.0187C49.6688 17.952 49.4854 17.8356 49.3386 17.6799C49.0018 17.2374 48.9056 16.7788 49.0531 15.9963Z" fill="white"/>
<path d="M64.6099 5.57033C65.0367 5.5345 65.4658 5.5345 65.8927 5.57033C67.2203 5.6954 69.0354 6.18285 69.3978 7.15134C69.5043 7.36443 69.5504 7.60259 69.5312 7.84001C69.512 8.07743 69.4281 8.30507 69.2888 8.49826C69.1966 8.69607 69.0415 8.85778 68.8478 8.95815C68.654 9.05852 68.4324 9.09189 68.2177 9.05305C67.5025 8.98571 66.6142 8.48543 65.681 8.41167C65.2708 8.36197 64.8548 8.42172 64.4752 8.58484C62.4356 9.46675 62.0251 14.0687 65.0364 14.8159C65.9985 15.0404 68.3139 15.0532 69.385 13.0585L69.1798 15.2841C69.1596 15.6931 69.036 16.0903 68.8206 16.4386C68.2177 17.3558 66.5469 17.8368 64.8536 17.6797C63.3111 17.5354 61.7301 16.8715 60.8674 15.5182C58.8791 12.4684 59.7931 6.05458 64.6099 5.57033ZM65.1871 11.6186C65.2673 10.772 65.7868 10.4032 66.7329 10.4898L68.0766 10.6148C69.4395 10.7399 69.7314 12.1093 69.0387 12.9655C68.4357 13.6556 67.5932 14.0912 66.6816 14.1841L66.7874 13.0393C65.8061 12.9495 65.0845 12.7314 65.1871 11.6186V11.6186Z" fill="white"/>
<path d="M77.2452 8.97319C78.1688 9.31954 78.8487 10.2175 78.993 11.6798C77.1651 10.7178 75.8182 11.7344 75.1062 13.6232C74.4648 15.3389 74.715 16.8943 76.2928 17.4876C77.8706 18.0809 79.0764 17.0899 79.7274 15.3582C79.9111 14.8412 80.0244 14.3019 80.0641 13.7547C80.2534 12.116 79.7434 9.9962 77.4505 8.42802C78.1693 8.42087 78.883 8.54925 79.5542 8.80643C82.7227 9.99941 83.6848 13.123 82.4597 16.3844C81.2347 19.6458 78.4094 21.3295 75.289 20.1654C72.1045 18.9692 71.1393 15.8456 72.3611 12.6002C73.5028 9.51517 75.7027 8.39274 77.2452 8.97319Z" fill="white"/>
<path d="M85.9905 21.448L85.0284 22.8013C84.6371 23.3401 84.0406 23.9173 83.303 23.6544C83.1247 23.5999 82.9575 23.5141 82.8092 23.401C81.9145 22.7596 82.0972 21.9034 82.6745 21.1049L86.9012 15.2298C87.6581 16.2752 87.6645 19.1198 85.9905 21.448ZM89.4636 13.9406C89.6354 14.02 89.7987 14.1167 89.951 14.2292C90.9548 14.9508 90.9131 16.3105 90.6918 17.5965L89.9061 22.4582L92.7924 18.4656C93.4337 17.558 94.1874 17.2694 94.9987 17.853C95.8101 18.4367 95.8004 19.2513 95.1494 20.1588L90.9099 26.0467C90.2172 27.0088 89.1076 27.9549 87.9018 27.0858C86.805 26.2969 86.9397 24.8409 87.1161 23.6672L87.4368 21.6661C87.5747 20.6142 87.8152 19.4533 87.8601 18.9915C88.0237 17.8787 88.0301 16.814 87.642 15.8968C87.1674 14.7327 88.3283 13.5141 89.4636 13.9406V13.9406Z" fill="white"/>
<path d="M25.6488 101.201L27.2041 99.0748C28.07 97.8883 29.6318 97.5034 30.7863 98.1833C30.9424 98.2708 31.0933 98.3672 31.2384 98.4719L33.7302 100.29C35.2086 101.374 34.0509 102.821 33.2171 102.914C33.0129 102.93 32.8076 102.905 32.6132 102.84C32.4188 102.776 32.2392 102.673 32.0851 102.538L29.5933 100.72L28.6312 102.038L31.4437 104.094C32.1973 104.645 32.4058 105.341 31.8221 106.149C31.2385 106.957 30.5169 106.948 29.76 106.396L25.8316 103.51C24.9817 102.904 25.0106 102.077 25.6488 101.201ZM31.5078 93.8251C31.7149 93.7876 31.9276 93.7954 32.1313 93.848C32.335 93.9006 32.525 93.9967 32.688 94.1297L36.5651 96.9647C36.9106 97.1836 37.1569 97.5288 37.2514 97.9267C37.2864 98.315 37.1787 98.7027 36.9485 99.0173C36.7183 99.3319 36.3813 99.5518 36.0007 99.636C35.7999 99.6539 35.5975 99.631 35.4058 99.5687C35.214 99.5064 35.0368 99.4061 34.8847 99.2736L32.1332 97.2597L31.7099 97.8402C30.5008 96.9775 29.17 97.1603 28.0989 97.8626L30.4207 94.6845C30.6787 94.2884 31.0612 93.9895 31.5078 93.8347V93.8251Z" fill="white"/>
<path d="M38.7973 107.461L38.1559 109.003C37.9026 109.619 37.4536 110.318 36.6775 110.235C36.4902 110.223 36.3066 110.178 36.1355 110.1C35.119 109.683 35.0997 108.817 35.4749 107.9L38.2265 101.207C39.2238 102.048 39.8909 104.809 38.7973 107.461ZM40.4393 99.357C40.6258 99.3953 40.8083 99.4511 40.9844 99.5237C42.1229 99.9952 42.3859 101.329 42.4821 102.631L42.8412 107.538L44.7141 102.99C45.1406 101.958 45.7948 101.506 46.7184 101.887C47.642 102.269 47.8216 103.061 47.3983 104.094L44.6403 110.802C44.1881 111.896 43.3255 113.073 41.9529 112.509C40.7054 111.995 40.4874 110.552 40.3976 109.363L40.2597 107.339C40.1506 106.284 40.1154 105.094 40.0544 104.642C39.955 103.52 39.7145 102.484 39.1244 101.682C38.39 100.659 39.2399 99.203 40.4393 99.357Z" fill="white"/>
<path d="M48.2129 112.525L48.6041 109.921C48.819 108.468 50.0248 107.4 51.3621 107.464C51.5481 107.464 51.7148 107.483 51.8944 107.512L54.9474 107.968C56.7593 108.237 56.4034 110.055 55.7107 110.533C55.5372 110.642 55.3439 110.716 55.1418 110.749C54.9398 110.783 54.7331 110.776 54.5337 110.729L51.4839 110.28L51.2434 111.883L54.6909 112.4C55.6145 112.538 56.1276 113.041 55.9736 114.042C55.8197 115.042 55.1847 115.356 54.2611 115.219L49.4507 114.5C48.4149 114.343 48.0525 113.596 48.2129 112.525ZM49.9799 103.279C50.1461 103.149 50.3387 103.057 50.5442 103.01C50.7498 102.962 50.9632 102.96 51.1697 103.003L55.9191 103.712C56.3238 103.744 56.7001 103.933 56.9678 104.238C57.1781 104.566 57.2616 104.96 57.2025 105.346C57.1435 105.731 56.946 106.082 56.6471 106.332C56.4775 106.442 56.2875 106.516 56.0885 106.55C55.8896 106.584 55.6858 106.578 55.4894 106.531L52.1061 106.028L52.0163 106.752C50.5475 106.55 49.4507 107.33 48.8318 108.452L49.4123 104.559C49.4524 104.081 49.6523 103.63 49.9799 103.279Z" fill="white"/>
<path d="M59.62 104.431C59.7483 104.273 59.9101 104.145 60.0937 104.058C60.2773 103.97 60.478 103.924 60.6815 103.924L63.5068 103.693C66.1685 103.478 68.0446 104.53 68.2819 107.455C68.423 109.183 67.7367 110.411 66.9542 110.877C66.0949 111.354 65.1415 111.637 64.161 111.707L62.7147 111.823L62.8622 113.618C62.952 114.734 62.5415 115.434 61.5602 115.517C60.5788 115.6 60.0593 114.969 59.9567 113.856L59.3923 106.576C60.1042 107.721 61.3774 107.538 62.3747 107.468L62.519 109.215L63.9654 109.097C65.1455 109 65.4374 108.491 65.3732 107.692C65.3123 106.945 64.9563 106.505 63.8884 106.544L60.8643 106.788C59.713 106.881 58.9048 105.524 59.62 104.431ZM64.3951 112.105C64.6624 112.117 64.9302 112.112 65.1968 112.089C65.9302 112.035 66.6466 111.841 67.307 111.518C67.4064 111.691 67.5796 111.964 67.7175 112.22C67.8105 112.361 67.8906 112.522 67.9901 112.682C68.7758 114.125 68.1183 115.081 67.1851 115.158C66.8673 115.169 66.5526 115.091 66.2767 114.933C66.0007 114.775 65.7744 114.543 65.6233 114.263C65.4277 113.913 65.2513 113.593 65.0782 113.301L64.3951 112.105Z" fill="white"/>
<path d="M73.3072 101.602C73.68 101.396 74.0694 101.222 74.4713 101.082C75.7349 100.653 77.5885 100.354 78.3196 101.082C78.5045 101.235 78.6443 101.435 78.724 101.661C78.8036 101.887 78.8202 102.13 78.7718 102.365C78.7672 102.583 78.6909 102.794 78.5548 102.965C78.4186 103.136 78.2301 103.258 78.0182 103.311C77.3383 103.542 76.3345 103.443 75.4366 103.75C75.043 103.87 74.6879 104.091 74.4072 104.392C72.9031 106.034 74.4072 110.402 77.4666 109.844C78.4287 109.651 80.5548 108.718 80.7184 106.46L81.44 108.577C81.5885 108.958 81.6381 109.371 81.5843 109.776C81.4079 110.86 80.0802 111.983 78.4703 112.531C77.0048 113.031 75.2891 113.07 73.9486 112.188C70.8988 110.248 69.1093 104.02 73.3072 101.602ZM76.3089 106.887C76.0331 106.082 76.357 105.53 77.271 105.222L78.5537 104.789C79.8365 104.347 80.6703 105.476 80.3849 106.544C80.1148 107.42 79.5238 108.162 78.7301 108.622L78.3613 107.531C77.4121 107.849 76.6713 107.945 76.3089 106.887Z" fill="white"/>
<path d="M80.2374 100.444C80.0925 100.157 80.0526 99.8292 80.1246 99.5163C80.1967 99.2034 80.3762 98.9257 80.6318 98.7314C81.1481 98.3947 81.9627 98.6994 82.4694 98.9238L83.6271 99.4434C84.2685 99.7224 84.9099 100.037 85.2113 100.162C85.3462 101.386 85.6595 102.584 86.1413 103.718C85.8944 103.58 84.7175 103.032 83.595 102.535C82.9536 102.214 82.2353 101.893 81.456 101.521C81.0089 101.315 80.62 101.001 80.324 100.607C80.2866 100.558 80.2574 100.503 80.2374 100.444V100.444ZM87.6614 105.896L87.4722 105.604C86.4525 104.085 85.8955 102.302 85.8687 100.473L85.811 96.7624C85.811 96.2076 85.8495 95.3257 86.3658 94.9889C86.7282 94.7516 87.6294 94.758 87.918 95.1076C88.0815 95.3 88.1777 95.4283 88.2162 95.47C88.4575 95.8993 88.5876 96.3822 88.5946 96.8746L88.7422 102.217L90.1115 104.311C90.6503 105.136 90.7529 106.014 89.8742 106.598C88.9955 107.182 88.197 106.713 87.6582 105.889L87.6614 105.896Z" fill="white"/>
<path fill-rule="evenodd" clip-rule="evenodd" d="M107.91 41.5938L108.904 45.2015L112.643 45.3715L109.517 47.472L110.511 51.1023L107.583 48.7741L104.459 50.8393L105.777 47.2989L102.853 44.929L106.592 45.0989L107.91 41.5938Z" fill="black"/>
<path fill-rule="evenodd" clip-rule="evenodd" d="M106.54 72.124L107.535 75.7318L111.274 75.9018L108.147 78.0023L109.138 81.6293L106.213 79.3043L103.087 81.3696L104.408 77.8291L101.483 75.456L105.222 75.626L106.54 72.124Z" fill="black"/>
<path fill-rule="evenodd" clip-rule="evenodd" d="M12.2183 41.5938L11.2241 45.2015L7.48486 45.3715L10.6116 47.472L9.62068 51.1023L12.5454 48.7741L15.6721 50.8393L14.3509 47.2989L17.2756 44.929L13.5363 45.0989L12.2183 41.5938Z" fill="black"/>
<path fill-rule="evenodd" clip-rule="evenodd" d="M13.5911 72.124L12.5938 75.7318L8.85449 75.9018L11.9812 78.0023L10.9903 81.6293L13.915 79.3043L17.0418 81.3696L15.7205 77.8291L18.6452 75.456L14.906 75.626L13.5911 72.124Z" fill="black"/>
<path fill-rule="evenodd" clip-rule="evenodd" d="M45.1471 67.6274L45.2049 67.8776C45.1856 67.9514 45.1696 68.0283 45.1535 68.1021C45.1193 68.0278 45.101 67.9472 45.0999 67.8654C45.0988 67.7837 45.1149 67.7026 45.1471 67.6274V67.6274Z" fill="#585858"/>
<path d="M90.4995 59.0622L90.6919 59.1007L90.4995 58.9019V59.0622Z" fill="#020202"/>
<path d="M47.2349 59.2382C48.6091 58.0108 50.134 56.9634 51.7727 56.1211C51.7727 56.1211 51.7727 56.1019 51.8016 56.1211C51.2588 56.5433 50.7416 56.9973 50.2526 57.4808C49.3273 58.3461 48.4865 59.2975 47.7416 60.3222C46.2143 62.4687 45.3159 64.9985 45.1472 67.6275C45.1472 67.7141 45.0542 67.8264 45.2049 67.8777C45.2402 67.7366 45.2691 67.5955 45.314 67.4576C45.8102 66.0224 46.6336 64.7225 47.7192 63.6606C49.2235 62.0516 51.0597 60.7888 53.1004 59.9598C53.1838 59.9277 53.2896 59.8123 53.373 59.9309C53.4564 60.0496 53.3121 60.0913 53.2672 60.1618C52.439 61.417 51.7079 62.7335 51.08 64.0999C50.7527 64.8027 50.5001 65.5379 50.3264 66.2935C50.6759 66.2678 50.9934 66.2293 51.3141 66.2197C51.7531 66.1943 52.1936 66.2125 52.629 66.2742H66.5182C65.7132 65.3795 64.8634 64.5232 63.9911 63.6894C63.8789 63.5836 62.7661 62.3008 63.8179 60.4825C63.8179 60.4825 63.5935 59.5429 63.6031 59.5204C63.9238 58.879 65.3765 52.4492 66.2584 50.7303C66.1397 51.6923 66.3386 52.2984 66.8357 52.7602V50.4641L65.4663 48.7067C60.6174 46.6318 53.6007 50.1755 51.7246 51.5737C49.4349 53.2926 46.8148 55.8934 45.3749 58.5135C44.3487 60.3799 43.4187 63.3655 43.207 64.2122C43.5007 63.7229 43.8219 63.2507 44.1691 62.7979C45.0496 61.4965 46.0784 60.3019 47.2349 59.2382V59.2382Z" fill="white"/>
<path fill-rule="evenodd" clip-rule="evenodd" d="M91.1825 57.2437C90.8619 55.8167 89.7779 55.0694 88.4342 54.9989C87.703 54.9508 87.3278 54.5948 86.8307 54.2645C86.3918 53.9998 85.9366 53.7631 85.4678 53.5558C85.083 53.3056 84.743 52.9368 84.3486 52.6482C83.8868 52.3275 83.255 52.1511 82.9119 51.7375C82.2832 51.0336 81.7789 50.2278 81.4207 49.3547C80.744 47.5075 79.4195 46.2632 77.9572 45.0831C76.9021 44.23 75.8342 43.3866 74.8465 42.4566C73.6166 41.3037 72.7524 39.815 72.3611 38.1754C72.3322 38.0535 72.2841 37.9316 72.2457 37.8162L72.0596 37.8322C72.0596 38.5121 72.0083 39.1919 72.0596 39.8654C72.111 40.5389 72.2969 41.177 72.4316 41.8761C69.8212 40.6222 67.8938 38.6692 66.2775 36.3378C66.4509 37.1846 66.7345 38.0051 67.121 38.7783C68.5192 41.27 70.4786 43.1846 73.166 44.2781L76.1998 45.5224C75.5064 45.4795 74.8165 45.3916 74.1345 45.2595C70.0938 44.602 66.1749 43.5341 62.4838 41.7318C59.6168 40.3336 56.9871 38.6307 55.4446 35.6387C55.4515 36.3294 55.5321 37.0175 55.6851 37.6911C56.1373 39.5832 57.7343 40.3048 59.2736 41.0808C55.3644 40.3881 51.8656 38.7622 49.4604 35.9273C50.6172 38.1481 52.3159 40.041 54.3991 41.4304C56.0009 42.4266 57.6692 43.3116 59.3923 44.0793V44.0793C60.7198 43.8418 62.0819 43.878 63.3949 44.1857C64.7079 44.4934 65.9442 45.0661 67.028 45.8688C65.1254 45.0507 63.0656 44.663 60.9958 44.7335C61.1753 44.8073 61.3549 44.8682 61.5345 44.9356C62.2657 45.2178 63.0033 45.4775 63.7473 45.7309C64.5651 46.0099 65.3925 46.2312 66.3545 46.5422C65.3228 46.6629 64.3014 46.8591 63.2983 47.1291V47.1291C62.782 47.4498 62.2753 47.4498 61.775 47.6069C63.0578 47.6711 64.2444 47.9661 66.0434 49.0244C63.9141 48.0623 62.4934 48.2291 60.2261 48.1938C57.574 49.2211 55.1528 50.7658 53.1035 52.738C54.2548 52.552 55.39 52.2826 56.7305 52.4173C55.0677 53.2908 53.495 54.3263 52.0356 55.5088C52.2581 55.6824 52.4383 55.9042 52.5628 56.1574C52.6872 56.4107 52.7526 56.6889 52.7539 56.9711H56.3938V58.6003C56.7658 58.1513 57.1699 57.7312 57.5708 57.2822C57.6221 57.3656 57.6445 57.3913 57.6413 57.4009C57.6172 57.4574 57.5871 57.5111 57.5515 57.5612C57.1357 58.1279 56.7493 58.7155 56.3938 59.3218V63.6833C57.1314 63.9313 57.8797 64.1451 58.6387 64.3246C58.2823 63.4833 58.1211 62.5722 58.1672 61.6597C58.1672 61.3197 58.2474 60.9798 58.2891 60.6399C58.4879 62.3299 59.0203 63.6704 59.8509 64.594H59.9054C60.1363 64.6133 60.3672 64.6165 60.5981 64.6261C61.3389 64.6614 61.2395 67.6919 61.9258 67.8779C61.9258 67.8779 69.523 69.9303 67.8586 67.8298C62.0861 60.5373 64.3085 58.2379 65.1904 56.5222C65.0718 57.4843 65.3219 58.0904 65.7837 58.5522C66.4796 59.2513 67.6661 59.6105 68.8046 60.2935C69.6095 60.7778 69.2664 60.5405 70.0585 61.0439C71.9827 62.2465 73.6888 63.6704 74.9459 65.5753C76.0266 67.2173 75.908 67.7496 74.3622 68.9715C74.3334 68.9907 74.3269 69.0388 74.2564 69.2184L76.1805 69.0869C76.1816 69.3697 76.1117 69.6482 75.9772 69.897C75.8428 70.1458 75.6481 70.3568 75.4109 70.5108C74.9683 70.8315 74.4745 71.0656 73.9806 71.3574C75.3724 71.5563 76.8123 71.2195 77.6044 70.3504C77.7992 70.1101 78.0429 69.914 78.3194 69.7752C78.5959 69.6364 78.8988 69.5581 79.2079 69.5455C79.4669 69.525 79.7191 69.4522 79.9493 69.3315C80.1794 69.2108 80.3827 69.0448 80.547 68.8434C80.7112 68.642 80.8329 68.4095 80.9048 68.1597C80.9767 67.91 80.9973 67.6483 80.9653 67.3905C80.6931 67.4759 80.4142 67.5382 80.1315 67.5765C80.0592 67.5708 79.9897 67.5466 79.9295 67.5062C79.8694 67.4657 79.8208 67.4104 79.7883 67.3456C79.6376 66.1718 78.8263 65.4888 77.9892 64.8057C77.2613 64.2092 76.5044 63.6416 75.8182 63.0066C75.1852 62.4404 74.6766 61.749 74.3245 60.9762C73.9723 60.2035 73.7842 59.366 73.7722 58.5169C73.7355 58.2269 73.5981 57.9591 73.3841 57.7601C72.8453 57.2309 72.2585 56.7531 71.5946 56.1566C71.8255 56.1406 71.8736 56.1181 71.9153 56.1341C74.4509 57.4402 77.2376 58.1861 80.0866 58.3213C80.8947 58.3565 81.6227 58.6837 81.8408 59.7804L82.5174 58.6644L84.185 60.0947L84.8264 59.3443C85.3042 60.4475 84.7142 61.4512 84.2588 62.5512C85.6538 62.1119 86.8243 61.5603 87.3759 60.1653H87.5427L88.0109 61.9451C88.4326 61.9361 88.8478 61.8387 89.2295 61.6591C89.6112 61.4796 89.951 61.2219 90.2269 60.9028C90.3135 60.8002 90.4418 60.6495 90.5476 60.6527C91.1505 60.6719 91.3365 60.2486 91.3397 59.8061C91.3832 58.9488 91.3305 58.0893 91.1825 57.2437V57.2437ZM82.1358 53.7354L78.156 52.0742C78.0534 52.738 77.954 53.389 77.8353 54.0625C76.0694 52.6172 74.312 51.1826 72.5631 49.7588C73.8844 50.3104 75.211 50.863 76.5429 51.4168C76.6455 50.7561 76.7482 50.0987 76.8636 49.4317L82.1326 53.7354H82.1358Z" fill="white"/>
<path fill-rule="evenodd" clip-rule="evenodd" d="M76.0266 60.1489C78.7653 59.8924 80.9845 60.6973 82.3635 63.2116C82.8443 64.1716 83.606 64.9625 84.5474 65.4788C85.3539 65.9227 86.3033 66.0296 87.1883 65.776C88.0733 65.5225 88.8221 64.9291 89.2712 64.1255L89.5406 63.6413C90.1499 64.2346 90.4514 64.8535 90.1307 65.6488C92.6417 66.8546 93.251 67.8937 92.584 69.8755C91.8015 68.2721 90.4161 68.1662 88.9057 68.2721C87.6598 68.3751 86.4083 68.3933 85.1599 68.3266C84.5185 68.2855 83.8979 68.082 83.3566 67.7354C82.8153 67.3887 82.371 66.9102 82.0653 66.3447C81.6195 65.5879 81.2186 64.8086 80.821 64.0261C80.3827 63.0967 79.7462 62.2745 78.9561 61.6174C78.166 60.9603 77.2416 60.4843 76.2479 60.2227L76.0266 60.1489Z" fill="#B60000"/>
<path fill-rule="evenodd" clip-rule="evenodd" d="M76.0266 60.1489C78.7653 59.8924 80.9845 60.6973 82.3635 63.2116C82.8443 64.1716 83.606 64.9625 84.5474 65.4788C85.3539 65.9227 86.3033 66.0296 87.1883 65.776C88.0733 65.5225 88.8221 64.9291 89.2712 64.1255L89.5406 63.6413C90.1499 64.2346 90.4514 64.8535 90.1307 65.6488C92.6417 66.8546 93.251 67.8937 92.584 69.8755C91.8015 68.2721 90.4161 68.1662 88.9057 68.2721C87.6598 68.3751 86.4083 68.3933 85.1599 68.3266C84.5185 68.2855 83.8979 68.082 83.3566 67.7354C82.8153 67.3887 82.371 66.9102 82.0653 66.3447C81.6195 65.5879 81.2186 64.8086 80.821 64.0261C80.3827 63.0967 79.7462 62.2745 78.9561 61.6174C78.166 60.9603 77.2416 60.4843 76.2479 60.2227L76.0266 60.1489Z" fill="#653EB7"/>
<path fill-rule="evenodd" clip-rule="evenodd" d="M92.2536 68.4649C91.4519 67.769 90.4706 67.6535 89.6303 67.6535C89.4027 67.6535 89.1589 67.6535 88.8671 67.6824C88.1584 67.7305 87.3214 67.7786 86.4715 67.7786C86.0161 67.7786 85.6025 67.7786 85.1888 67.7369C84.6426 67.7002 84.1147 67.5252 83.6547 67.2285C83.1947 66.9317 82.8177 66.5229 82.5591 66.0404C82.1133 65.2772 81.7092 64.4915 81.334 63.7539C80.8275 62.7242 80.1083 61.8137 79.2239 61.0825C80.3583 61.543 81.2878 62.3985 81.8407 63.4909C82.375 64.555 83.2222 65.4302 84.2684 65.9987C84.8773 66.3206 85.5551 66.49 86.2438 66.4926C86.9071 66.4883 87.5591 66.3218 88.1433 66.0076C88.7274 65.6935 89.2258 65.2412 89.5951 64.6903C89.6443 64.8081 89.6683 64.9348 89.6655 65.0624C89.6627 65.19 89.6333 65.3156 89.579 65.4311L89.3738 65.941L89.8677 66.1783C91.5898 66.9865 92.2023 67.6439 92.2536 68.4649Z" fill="#B25CE9"/>
<path d="M79.7241 67.1915C79.7241 67.1915 80.1891 66.9542 79.6985 65.3379C79.5359 65.7421 79.285 66.1047 78.9641 66.3994" fill="white"/>
<path d="M78.698 66.1012C78.698 66.1012 79.1694 65.8831 78.7397 64.2476C78.5621 64.6459 78.2981 64.9998 77.9668 65.2834" fill="white"/>
<path d="M77.4859 65.0621C77.4859 65.0621 77.9861 64.9114 77.8066 63.231C77.5733 63.5995 77.2611 63.9117 76.8926 64.1449" fill="white"/>
<path d="M76.3344 64.1995C76.3344 64.1995 76.8315 64.052 76.6391 62.3716C76.4076 62.7405 76.0964 63.0528 75.7283 63.2855" fill="white"/>
<path d="M67.0408 45.8622L66.3738 47.8121L66.1589 48.3861C65.2509 47.8701 64.2964 47.4406 63.3079 47.1033V47.1033C61.2138 46.7826 59.5911 47.2508 55.7011 46.5742C52.0099 45.9328 50.7432 43.0466 50.307 41.2346C50.2493 40.9877 50.2044 40.7728 50.1724 40.5933C50.7689 41.411 54.2933 45.9777 58.5521 45.0413C59.3595 44.8635 60.182 44.7625 61.0086 44.7398C63.0782 44.6674 65.1382 45.054 67.0408 45.8719V45.8622Z" fill="black"/>
<path d="M73.6888 45.3554C73.6888 45.3554 68.9008 44.0566 63.5356 38.5503C63.5356 38.5503 64.0039 42.5814 68.3974 45.4997" fill="#020202"/>
<path d="M89.0916 55.9482C89.0916 55.9482 89.2488 55.108 87.8089 52.8022C87.8089 52.8022 87.9884 54.999 87.1675 56.4036" fill="#020202"/>
<path d="M66.8293 46.0804L66.3739 47.8122L66.0532 49.034C64.2573 47.9757 63.0675 47.7128 61.788 47.6486C60.2679 47.5749 58.6227 47.7833 55.6948 47.2734C51.327 46.5198 50.3521 42.5656 50.1372 41.0552C50.1853 41.1193 50.2398 41.1899 50.3008 41.2636C51.4232 42.6683 54.5948 46.074 58.3181 45.253C59.3707 45.02 60.4471 44.9124 61.525 44.9324C63.3512 44.9645 65.1533 45.3546 66.8293 46.0804V46.0804Z" fill="black"/>
<path d="M67.0408 45.862L66.1557 49.0946C66.1236 49.0722 66.0883 49.0561 66.053 49.0337C64.2572 47.9754 63.0674 47.7124 61.7878 47.6483C60.2677 47.5745 58.6226 47.783 55.6946 47.2731C51.3268 46.5194 50.3519 42.5653 50.1371 41.0548C50.0889 40.6925 50.0825 40.4712 50.0825 40.4712L50.1691 40.5963C50.7656 41.414 54.29 45.9743 58.5488 45.0378C59.3557 44.8536 60.1782 44.7463 61.0053 44.7172C63.0745 44.6463 65.134 45.0317 67.0376 45.846L67.0408 45.862Z" fill="white"/>
<path fill-rule="evenodd" clip-rule="evenodd" d="M89.1237 45.6825V45.7627L89.0756 47.4592L88.7742 47.1738C88.4556 46.5965 88.121 46.0321 87.7704 45.4805C87.5331 45.1085 87.2894 44.7429 87.036 44.3837C86.5122 43.6354 85.9574 42.9117 85.3716 42.2126C84.5113 41.1897 83.5835 40.2255 82.5944 39.3264C81.597 38.4156 80.5163 37.5947 79.4324 36.7865C78.3296 35.9863 77.1613 35.2804 75.94 34.6764C76.1613 35.3177 76.3505 35.8469 76.5429 36.3889L76.482 36.4273L76.1613 36.1067C75.2379 35.0996 74.1829 34.2215 73.0249 33.4962C71.6391 32.7224 70.1245 32.2063 68.5545 31.9729C67.8009 31.8382 67.044 31.7292 66.2295 31.5977L67.5539 33.2557L67.5026 33.3134L66.6335 32.8837C65.1562 32.1295 63.5699 31.6111 61.9322 31.3476C60.5768 31.1646 59.2016 31.1873 57.853 31.4149C56.6279 31.6105 55.4125 31.8767 54.1939 32.114C54.1265 32.114 54.0592 32.1557 53.9437 32.191L55.9994 33.1242C55.9994 33.1531 55.9994 33.1851 55.9994 33.214H55.6434C54.3606 33.2557 53.0779 33.2557 51.7951 33.3455C49.1665 33.5435 46.6495 34.4893 44.541 36.0714C43.8034 36.6037 43.0883 37.1724 42.3956 37.7775L45.2818 37.5562C45.2889 37.5844 45.2975 37.6122 45.3075 37.6396C45.2113 37.6941 45.1183 37.7518 45.0221 37.8031C43.8515 38.4445 42.665 39.0859 41.5169 39.7658C38.7805 41.3971 36.6692 43.8978 35.5199 46.8691C35.2217 47.6131 34.9427 48.3635 34.6893 49.1396C35.8602 48.2451 37.1234 47.4786 38.4575 46.8531L38.2009 47.2122C37.0045 48.7825 35.9475 50.4543 35.0421 52.2086C33.7803 54.6462 33.1903 57.3758 33.3328 60.1169C33.4713 62.1511 33.879 64.158 34.545 66.085C34.8169 64.7597 35.1757 63.4538 35.6194 62.1758C35.815 63.3495 35.9753 64.4559 36.1902 65.5494C36.7217 68.4759 37.7361 71.2937 39.1919 73.8875C40.3818 75.9821 41.9949 77.806 43.9285 79.243C44.0354 79.3275 44.1529 79.3976 44.2781 79.4515C43.6818 78.23 43.1915 76.9597 42.8125 75.6545C42.8862 75.725 42.9632 75.7924 43.0338 75.8661C44.9911 77.9443 47.2045 79.7654 49.6208 81.2858C53.2741 83.5467 57.5335 84.6314 61.8232 84.3933C64.3364 84.3201 66.8189 83.8191 69.1638 82.9117C70.272 82.4906 71.2833 81.8491 72.1366 81.0261C72.6259 80.5647 73.0015 79.9962 73.2341 79.3652C73.4667 78.7342 73.5498 78.058 73.4771 77.3894C74.1185 76.9276 74.715 76.4273 75.2955 75.9174C76.0761 75.2304 76.8069 74.4888 77.4826 73.6982C78.0886 73.0233 78.6257 72.2896 79.086 71.5079C79.4751 71.4245 79.8632 71.3347 80.2501 71.2385C80.7205 71.1147 81.1338 70.8328 81.4207 70.44C81.7414 70.6869 82.0909 70.9499 82.4148 71.2225C83.5271 72.121 84.455 73.2263 85.1471 74.4775C85.6275 75.3431 85.8957 76.3103 85.9296 77.2996C85.3524 76.4177 84.7463 75.5711 83.7104 75.0933C85.083 78.1463 85.1728 81.3083 84.7206 84.5377C84.3939 83.8042 83.9401 83.1343 83.3801 82.559C83.3387 83.9488 82.9992 85.3134 82.3845 86.5605C81.7698 87.8076 80.8943 88.9081 79.8172 89.7874C79.9519 89.0145 80.1379 88.2545 79.9904 87.4303C79.907 87.4912 79.8589 87.5233 79.814 87.5618C77.24 89.8212 74.1809 91.4583 70.8731 92.3465C67.2 93.3578 63.3818 93.7374 59.5815 93.4689C55.7342 93.2355 51.9403 92.4515 48.3156 91.1407C37.566 87.2924 29.7379 77.8127 27.5251 66.9509C25.9677 59.3103 27.1775 51.3649 30.9383 44.5341C34.6991 37.7033 40.766 32.4321 48.0551 29.6622C55.3442 26.8922 63.3807 26.804 70.7289 29.4133C78.077 32.0225 84.2582 37.1593 88.168 43.9059C88.5048 44.4928 88.8223 45.0796 89.1237 45.6825Z" fill="white"/>
<path d="M54.088 59.5652C54.088 59.5652 43.2294 69.6574 46.6287 84.1367C46.6287 84.1367 60.6686 90.6083 74.1602 82.3825C74.1602 82.3825 72.7555 74.8847 67.0408 66.7872L61.3164 58.6865" fill="white"/>
<path d="M51.4552 80.5163C51.4552 80.5163 49.531 72.8774 55.0213 64.2476C55.0213 64.2476 51.1249 72.6209 53.8828 81.3116L51.4552 80.5163Z" fill="black"/>
<path d="M69.1701 80.3753C69.1701 80.3753 68.8847 74.7792 64.2283 69.5103C64.2283 69.5103 67.7559 74.776 66.8227 80.9654L69.1701 80.3753Z" fill="black"/>
<path fill-rule="evenodd" clip-rule="evenodd" d="M73.6342 74.3623C73.6342 74.3623 72.111 82.5143 54.0977 83.7426C54.0977 83.7426 70.9757 85.8271 76.0266 75.2378" fill="black"/>
<path d="M79.9936 87.437C79.9936 87.437 68.5064 94.7809 55.0212 89.0084C55.0212 89.0084 61.0695 94.954 74.343 93.2448" fill="black"/>
<path d="M54.6589 92.9625C54.6589 92.9625 41.2539 90.4643 35.3628 77.0337C35.3628 77.0337 35.7091 85.5064 46.5646 93.3345" fill="black"/>
<path fill-rule="evenodd" clip-rule="evenodd" d="M89.1847 43.4985L89.1238 45.6825L89.1206 45.7626L89.0725 47.4591L88.771 47.1737L88.5818 46.9941L86.1895 44.7268L87.0329 44.3836L87.2958 44.2746L88.1713 43.9122L88.3477 43.8417L89.1847 43.4985Z" fill="white"/>
</g>
<defs>
<linearGradient id="paint0_linear_0_2875" x1="2.24495" y1="59.9985" x2="117.755" y2="59.9985" gradientUnits="userSpaceOnUse">
<stop stop-color="#643DB6"/>
<stop offset="1" stop-color="#B95FEE"/>
</linearGradient>
<clipPath id="clip0_0_2875">
<rect width="120" height="120" fill="white"/>
</clipPath>
</defs>
</svg>
