<svg width="160" height="55" viewBox="0 0 160 55" fill="none" xmlns="http://www.w3.org/2000/svg">
<path d="M61.1667 12.4795C61.4601 11.8704 61.996 11.457 63.0461 11.457H67.108C68.7934 11.457 70.7722 11.822 72.0671 12.992L72.1641 13.0645C74.1429 14.8171 74.6546 17.4471 74.6546 19.9563C74.6546 25.1172 72.3606 28.4289 67.108 28.4289H63.0509C61.414 28.4289 60.8296 27.3097 60.8296 25.8255V15.17C61.7317 16.925 63.6135 16.8259 65.0807 16.8259V24.2784H67.108C69.7755 24.2784 70.3817 22.2334 70.3817 19.9684C70.3817 17.7033 69.7706 15.6341 67.108 15.6341H62.9539C61.4407 15.622 60.4634 13.8913 61.1667 12.4795Z" fill="white"/>
<path d="M78.3213 12.0662C78.6875 11.6528 79.2258 11.457 79.9339 11.457H84.0856C87.9947 11.457 90.6089 13.2096 90.6089 17.5003C90.6089 20.0336 89.4618 21.7378 88.2639 22.3228C86.9523 22.9166 85.526 23.2162 84.0856 23.2003H81.9613V25.8303C81.9613 27.462 81.3017 28.4337 79.8345 28.4337C78.3674 28.4337 77.7102 27.4668 77.7102 25.8303V15.17C78.6147 16.925 80.4941 16.8259 81.9613 16.8259V19.3834H84.0856C85.8219 19.3834 86.3093 18.6775 86.3093 17.5075C86.3093 16.4125 85.8461 15.7308 84.282 15.6583H79.8394C78.1734 15.6535 77.1476 13.5746 78.3213 12.0662ZM84.3838 23.8022C84.7731 23.8524 85.1651 23.8775 85.5576 23.8771C86.6363 23.8854 87.7066 23.6868 88.7101 23.2921C88.8338 23.5605 89.052 23.9738 89.2242 24.363C89.3454 24.583 89.4449 24.8271 89.5661 25.0689C90.5361 27.2614 89.4691 28.5764 88.099 28.5764C87.3181 28.5764 86.4888 28.1388 85.9165 27.0897C85.674 26.5555 85.4509 26.0672 85.2326 25.6393L84.3838 23.8022Z" fill="white"/>
<path d="M92.6362 25.2163C93.4923 22.8787 95.7403 21.8804 98.158 21.8804H100.993L99.5742 17.5873L99.111 19.0376C98.8419 19.7918 98.5969 20.5968 98.4999 20.8651C96.5211 20.8385 94.5181 21.3993 93.4438 22.9343C93.7129 22.1535 94.4453 19.9151 95.1777 17.8918L96.5454 13.9613C97.1322 12.2692 98.1338 11.4521 99.5742 11.4521C101.015 11.4521 102.019 12.2789 102.605 13.9613L106.515 25.2163C106.881 26.3597 106.907 27.0172 106.442 27.6988C106.076 28.1823 105.685 28.3322 105.026 28.424C103.634 28.5473 102.974 27.8415 102.484 26.379L102.242 25.6973H96.9067C96.7854 26.014 96.4435 27.4257 95.7112 28.0107C95.3221 28.3171 94.8392 28.4809 94.3435 28.4748C93.6572 28.4748 93.0242 28.1823 92.7308 27.694C92.3186 26.993 92.2701 26.3113 92.6362 25.2163Z" fill="white"/>
<path d="M114.427 11.261C115.041 11.1534 115.662 11.0968 116.285 11.0918C118.24 11.0918 120.951 11.5535 121.62 12.9169C121.804 13.2124 121.903 13.5522 121.907 13.8998C121.911 14.2473 121.82 14.5894 121.644 14.8894C121.278 15.646 120.815 15.8394 120.155 15.8394C119.105 15.8394 117.759 15.2302 116.367 15.2302C115.763 15.2142 115.165 15.3576 114.634 15.646C111.774 17.2027 111.799 23.9494 116.295 24.6311C117.735 24.8269 121.108 24.5344 122.403 21.4886V24.752C122.428 25.3498 122.301 25.9442 122.035 26.4803C121.278 27.8945 118.909 28.8203 116.416 28.8203C114.146 28.8203 111.75 28.0637 110.31 26.2144C107 22.0736 107.465 12.6268 114.427 11.261ZM116.091 19.9802C116.091 18.7377 116.799 18.1286 118.191 18.1286H120.17C122.173 18.1286 122.784 20.0769 121.88 21.4161C121.023 22.6586 119.755 23.2436 118.606 23.5119V21.8198C117.165 21.8295 116.091 21.6119 116.091 19.9802Z" fill="white"/>
<path d="M130.28 12.5107C131.72 12.5107 133.112 13.3882 134.065 15.3124C131.061 14.9232 129.741 17.0166 129.741 19.9633C129.741 22.6416 130.891 24.6383 133.357 24.6383C135.823 24.6383 136.973 22.6658 136.973 19.9633C136.955 19.1634 136.832 18.3694 136.607 17.6016C136.02 15.264 134.213 12.634 130.28 11.6598C131.26 11.2793 132.305 11.089 133.357 11.099C138.316 11.099 141.248 14.8724 141.248 19.9633C141.248 25.1242 138.243 28.8033 133.357 28.8033C128.374 28.8033 125.442 25.0275 125.442 19.9633C125.447 15.1697 127.855 12.5107 130.28 12.5107Z" fill="white"/>
<path d="M148.557 23.3881V25.8248C148.557 26.7917 148.339 28.0003 147.238 28.3073C146.979 28.3965 146.706 28.4375 146.433 28.4282C144.82 28.4282 144.306 27.2606 144.306 25.8248V15.2563C146.115 15.8389 148.557 19.1989 148.557 23.3881ZM146.261 11.5288C146.535 11.4775 146.813 11.4532 147.092 11.4563C148.899 11.4563 150.002 13.1122 150.854 14.8164L154.079 21.2464V14.0622C154.079 12.4305 154.714 11.4563 156.179 11.4563C157.644 11.4563 158.33 12.4232 158.33 14.0622V24.6548C158.33 26.3832 157.816 28.4548 155.643 28.4548C153.664 28.4548 152.563 26.6273 151.782 25.0706L150.463 22.4115C149.736 21.0482 149.023 19.4648 148.681 18.8823C147.922 17.4198 147.02 16.1531 145.771 15.3989C144.209 14.4272 144.551 11.993 146.261 11.5288Z" fill="white"/>
<path d="M61.0697 32.7943C61.2303 32.6283 61.4252 32.499 61.6408 32.4156C61.8565 32.3321 62.0877 32.2963 62.3186 32.3108H67.6124C68.0591 32.2797 68.5003 32.4237 68.8419 32.7121C68.9963 32.8604 69.116 33.0408 69.1923 33.2406C69.2686 33.4403 69.2997 33.6544 69.2833 33.8676C69.301 34.0833 69.2707 34.3004 69.1944 34.503C69.1181 34.7057 68.9977 34.8891 68.8419 35.04C68.5679 35.3131 68.1629 35.4412 67.6124 35.4412H63.8343V36.2293C62.1998 36.2486 61.1328 37.2735 60.6381 38.5934V34.2664C60.6104 33.7411 60.7626 33.222 61.0697 32.7943V32.7943ZM60.6478 43.1258V40.2251C60.6478 38.6127 61.7875 37.2566 63.2571 37.1092C63.4584 37.0922 63.6427 37.0729 63.844 37.0729H67.239C69.2614 37.0729 69.179 39.1059 68.4879 39.7319C68.2138 40.0075 67.7895 40.1356 67.239 40.1356H63.8343V41.9293H67.6755C68.7037 41.9293 69.3487 42.4127 69.3487 43.5053C69.3487 44.598 68.7037 45.0621 67.6755 45.0621H62.3186C61.1667 45.0669 60.6478 44.3151 60.6478 43.1258V43.1258Z" fill="#7142BE"/>
<path d="M80.6395 41.2765V43.1064C80.6395 43.8316 80.4746 44.7381 79.6477 44.975C79.4529 45.042 79.2474 45.0731 79.0414 45.0668C77.8289 45.0668 77.4434 44.1869 77.4434 43.1064V35.1583C78.8014 35.5958 80.6395 38.134 80.6395 41.2765ZM78.9129 32.3542C79.1184 32.3161 79.3272 32.2983 79.5361 32.3011C80.8966 32.3011 81.7187 33.546 82.3661 34.8271L84.7912 39.6617V34.2663C84.7912 33.0408 85.2762 32.3083 86.3723 32.3083C87.4684 32.3083 87.9897 33.0335 87.9897 34.2663V42.2434C87.9897 43.5439 87.6042 45.1007 85.9673 45.1007C84.4807 45.1007 83.6538 43.7252 83.0573 42.5528L82.0727 40.5513C81.5222 39.5264 80.9887 38.3346 80.7317 37.8923C80.1618 36.7924 79.4828 35.84 78.5492 35.2719C77.3682 34.5346 77.6252 32.7023 78.9129 32.3542V32.3542Z" fill="#7142BE"/>
<path d="M96.4969 32.7943C96.6575 32.6283 96.8523 32.499 97.068 32.4156C97.2836 32.3321 97.5149 32.2963 97.7458 32.3108H103.04C103.486 32.2797 103.927 32.4237 104.269 32.7121C104.424 32.8604 104.543 33.0408 104.619 33.2406C104.696 33.4403 104.727 33.6544 104.71 33.8676C104.728 34.0833 104.698 34.3004 104.622 34.503C104.545 34.7057 104.425 34.8891 104.269 35.04C103.995 35.3131 103.59 35.4412 103.04 35.4412H99.2711V36.2293C97.6367 36.2486 96.5696 37.2735 96.0749 38.5934V34.2664C96.0445 33.7423 96.1932 33.2233 96.4969 32.7943V32.7943ZM96.0871 43.1258V40.2251C96.0871 38.6127 97.2268 37.2566 98.6964 37.1092C98.8977 37.0922 99.082 37.0729 99.2832 37.0729H102.678C104.701 37.0729 104.618 39.1059 103.927 39.7319C103.653 40.0075 103.229 40.1356 102.678 40.1356H99.2832V41.9293H103.12C104.148 41.9293 104.793 42.4127 104.793 43.5053C104.793 44.598 104.148 45.0621 103.12 45.0621H97.7458C96.5891 45.0669 96.0871 44.3151 96.0871 43.1258Z" fill="#7142BE"/>
<path d="M113.329 32.7585C113.485 32.598 113.674 32.4738 113.884 32.3948C114.093 32.3158 114.318 32.284 114.541 32.3016H117.67C120.611 32.3016 122.575 33.619 122.575 36.8437C122.575 38.7485 121.712 40.0297 120.812 40.4697C119.823 40.9176 118.747 41.1429 117.66 41.1296H116.062V43.1069C116.062 44.3349 115.577 45.0674 114.461 45.0674C113.346 45.0674 112.863 44.3422 112.863 43.1069V35.0839C113.545 36.4038 114.958 36.3312 116.062 36.3312V38.253H117.67C118.974 38.253 119.343 37.7212 119.343 36.8437C119.343 36.0194 118.994 35.5069 117.818 35.4513H114.471C113.217 35.4513 112.446 33.8946 113.329 32.7585ZM117.885 41.5865C118.178 41.6231 118.473 41.6417 118.768 41.6421C119.579 41.648 120.383 41.4986 121.137 41.2021C121.23 41.4052 121.395 41.7146 121.523 42.0095C121.615 42.1739 121.69 42.3576 121.783 42.5389C122.51 44.1875 121.707 45.1762 120.679 45.1762C120.09 45.1762 119.467 44.8474 119.042 44.0594C118.86 43.6581 118.693 43.2907 118.528 42.9619L117.885 41.5865Z" fill="#7142BE"/>
<path d="M135.103 32.1535C135.564 32.0724 136.032 32.0295 136.5 32.0254C137.97 32.0254 140.009 32.3735 140.506 33.3984C140.643 33.6214 140.717 33.8769 140.719 34.1382C140.722 34.3995 140.655 34.6567 140.523 34.8826C140.441 35.1079 140.287 35.2999 140.084 35.4289C139.882 35.5578 139.642 35.6165 139.403 35.5957C138.612 35.5957 137.603 35.1389 136.556 35.1389C136.101 35.1256 135.651 35.2333 135.251 35.4507C133.1 36.6231 133.12 41.697 136.5 42.2192C137.584 42.3666 140.121 42.1466 141.093 39.855V42.311C141.111 42.7605 141.017 43.2074 140.819 43.6115C140.249 44.6727 138.467 45.3689 136.592 45.3689C134.895 45.3689 133.081 44.8008 131.997 43.4109C129.516 40.2853 129.865 33.1784 135.103 32.1535ZM136.342 38.7117C136.342 37.7762 136.876 37.3193 137.923 37.3193H139.412C140.918 37.3193 141.377 38.7842 140.698 39.7922C140.106 40.6082 139.227 41.1705 138.236 41.3658V40.104C137.162 40.104 136.342 39.9372 136.342 38.7117Z" fill="#7142BE"/>
<path d="M148.736 33.6384C148.812 32.9591 149.418 32.3016 150.133 32.3016C150.849 32.3016 151.385 33.0703 151.714 33.5828L152.469 34.7503C152.891 35.3909 153.296 36.0678 153.497 36.3627C152.883 37.5689 152.45 38.8581 152.212 40.1893C152.064 39.9161 151.309 38.7075 150.575 37.5713C150.17 36.8921 149.711 36.1596 149.214 35.3547C148.929 34.8957 148.762 34.3732 148.729 33.8342C148.722 33.7689 148.724 33.7029 148.736 33.6384V33.6384ZM152.301 43.107V42.7274C152.301 40.767 152.818 38.6615 153.919 37.0323L156.101 33.5876C156.431 33.0752 157.001 32.2871 157.682 32.2871C158.167 32.2871 158.987 32.8358 159.04 33.3314C159.068 33.5011 159.087 33.6722 159.096 33.8439C159.06 34.3841 158.89 34.9068 158.599 35.3643L155.512 40.3657V43.1118C155.512 44.1923 155.09 45.0722 153.914 45.0722C152.738 45.0722 152.301 44.1778 152.301 43.107V43.107Z" fill="#7142BE"/>
<path fill-rule="evenodd" clip-rule="evenodd" d="M27.2165 54.6298C20.9194 54.6293 14.8173 52.4524 9.94983 48.4699C5.08241 44.4874 1.75084 38.9458 0.522779 32.7893C-0.705281 26.6327 0.24615 20.2422 3.21496 14.7065C6.18377 9.17086 10.9863 4.83256 16.8042 2.43082C22.6221 0.0290744 29.0955 -0.287512 35.1213 1.535C41.1471 3.35751 46.3526 7.20636 49.8507 12.4258C53.3489 17.6452 54.9233 23.9122 54.3057 30.159C53.6882 36.4058 50.9168 42.2458 46.4638 46.6841C43.9422 49.2116 40.9426 51.2152 37.6387 52.5791C34.3349 53.943 30.7924 54.64 27.2165 54.6298Z" fill="url(#paint0_linear_48_1733)"/>
<path fill-rule="evenodd" clip-rule="evenodd" d="M52.5676 27.4981C52.5676 32.4949 51.0812 37.3796 48.2963 41.5344C45.5114 45.6892 41.5532 48.9276 36.922 50.84C32.2909 52.7525 27.1948 53.2531 22.2783 52.2786C17.3617 51.3041 12.8454 48.8983 9.30048 45.3653C5.75555 41.8323 3.34116 37.3309 2.36262 32.4301C1.38408 27.5294 1.88534 22.4494 3.80299 17.8327C5.72065 13.2159 8.96859 9.26961 13.1361 6.4928C17.3037 3.716 22.2036 2.23338 27.2164 2.23242C30.5454 2.23179 33.8418 2.88484 36.9175 4.15427C39.9933 5.4237 42.788 7.28465 45.1421 9.63085C47.4962 11.977 49.3637 14.7625 50.6377 17.8282C51.9118 20.8939 52.5676 24.1797 52.5676 27.4981Z" fill="white"/>
<path fill-rule="evenodd" clip-rule="evenodd" d="M51.731 27.4981C51.731 32.33 50.2937 37.0534 47.6007 41.0711C44.9078 45.0888 41.0802 48.2202 36.6019 50.0696C32.1236 51.9189 27.1958 52.403 22.4415 51.4607C17.6873 50.5184 13.32 48.192 9.89211 44.7756C6.46418 41.3593 4.12948 37.0064 3.18322 32.2674C2.23696 27.5285 2.72164 22.6162 4.57598 18.1518C6.43031 13.6875 9.57102 9.87141 13.601 7.18624C17.6309 4.50107 22.3691 3.06736 27.2165 3.06641C30.4356 3.06577 33.6232 3.69725 36.5974 4.92477C39.5716 6.15229 42.2741 7.95182 44.5506 10.2206C46.827 12.4893 48.6328 15.1829 49.8648 18.1474C51.0969 21.1119 51.731 24.2893 51.731 27.4981Z" fill="white"/>
<path fill-rule="evenodd" clip-rule="evenodd" d="M50.8167 27.4984C50.8172 32.1502 49.4339 36.6976 46.8417 40.5658C44.2495 44.4339 40.5648 47.4489 36.2537 49.2296C31.9425 51.0103 27.1984 51.4767 22.6213 50.5699C18.0442 49.663 13.8397 47.4236 10.5394 44.1348C7.23906 40.846 4.99119 36.6555 4.08001 32.0933C3.16883 27.531 3.63527 22.8019 5.42034 18.5039C7.2054 14.2059 10.2289 10.532 14.1086 7.94688C17.9883 5.36174 22.5498 3.98143 27.2164 3.98047C30.3153 3.97952 33.384 4.58712 36.2473 5.76858C39.1106 6.95004 41.7123 8.68221 43.9039 10.8661C46.0955 13.0501 47.834 15.643 49.0201 18.4968C50.2062 21.3506 50.8167 24.4094 50.8167 27.4984Z" fill="black"/>
<path fill-rule="evenodd" clip-rule="evenodd" d="M19.9973 31.4209C19.9973 31.4668 20.0167 31.5103 20.0288 31.5563L19.9997 31.6747C19.9819 31.6348 19.9725 31.5917 19.9721 31.5481C19.9716 31.5044 19.9802 31.4611 19.9973 31.4209Z" fill="#585858"/>
<path d="M44.4341 26.8258L44.5384 26.8476L44.4341 26.7412V26.8258Z" fill="#020202"/>
<path d="M21.1224 26.9225C21.8664 26.2621 22.6919 25.6991 23.579 25.2473C23.579 25.2473 23.579 25.2352 23.596 25.2473C23.304 25.4727 23.0255 25.7149 22.7618 25.9725C22.2593 26.4368 21.8022 26.9475 21.3965 27.4978C20.5742 28.6492 20.0897 30.006 19.9972 31.4163C19.9972 31.4646 19.9463 31.5226 20.0288 31.5516C20.0482 31.4767 20.0651 31.3993 20.087 31.3244C20.3548 30.5539 20.799 29.8562 21.3843 29.2866C22.1981 28.4209 23.191 27.742 24.2944 27.2972C24.3404 27.2803 24.3986 27.2174 24.4423 27.2803C24.4859 27.3431 24.4108 27.3673 24.3865 27.406C23.9388 28.0839 23.544 28.795 23.2055 29.5332C23.0306 29.9108 22.8949 30.3053 22.8006 30.7104C22.9897 30.6983 23.1595 30.6766 23.3316 30.6717C23.5689 30.6583 23.8068 30.668 24.0422 30.7008H31.5282C31.0941 30.2173 30.6358 29.7604 30.1653 29.3132C30.1047 29.2552 29.5057 28.5663 30.0708 27.5921C30.0708 27.5921 29.9519 27.0845 29.9544 27.0796C30.1193 26.7412 30.9098 23.282 31.3875 22.3586C31.3221 22.8711 31.4312 23.1999 31.6979 23.4488V22.216L30.9704 21.2491C28.3563 20.1347 24.5684 22.0371 23.5644 22.7889C22.3301 23.7123 20.9187 25.1095 20.1403 26.5188C19.6503 27.4977 19.2596 28.5229 18.9739 29.5791C19.1298 29.3164 19.2998 29.0622 19.4831 28.8177C19.955 28.1255 20.5051 27.4896 21.1224 26.9225Z" fill="white"/>
<path fill-rule="evenodd" clip-rule="evenodd" d="M44.8076 25.8521C44.7383 25.5113 44.5529 25.2048 44.2829 24.9845C44.0129 24.7643 43.6748 24.6438 43.3259 24.6435C42.9306 24.6193 42.7294 24.4283 42.4602 24.2495C42.2259 24.108 41.9829 23.9812 41.7327 23.8699C41.5241 23.737 41.3423 23.5363 41.1289 23.3865C40.9155 23.2366 40.5396 23.1206 40.3553 22.903C40.0168 22.5239 39.7447 22.0908 39.5502 21.6218C39.1864 20.6308 38.4735 19.9612 37.6853 19.3278C37.1155 18.871 36.5407 18.4165 36.0072 17.9161C35.3451 17.2972 34.8804 16.4977 34.671 15.6173C34.6541 15.552 34.6274 15.4867 34.6056 15.4239H34.5061C34.5061 15.7865 34.4795 16.1491 34.5061 16.5141C34.5328 16.8791 34.6322 17.2199 34.705 17.5946C33.2985 16.9226 32.2581 15.8783 31.3876 14.6189C31.4815 15.0744 31.6348 15.5156 31.8435 15.9315C32.5515 17.2646 33.7042 18.3094 35.1027 18.8855L36.7347 19.5526C36.3618 19.5307 35.9907 19.4838 35.6241 19.4124C33.4479 19.0926 31.3314 18.4531 29.3433 17.5148C27.7985 16.7631 26.3823 15.8493 25.5505 14.2346C25.554 14.6055 25.5971 14.975 25.6791 15.3369C25.9216 16.3521 26.7849 16.7413 27.6191 17.1571C25.5117 16.7848 23.8991 15.7188 22.6017 14.1935C22.2995 13.8382 22.0178 13.4662 21.7578 13.0791C21.7715 13.1875 21.7984 13.2938 21.8378 13.3958C21.9906 13.7366 22.1531 14.0678 22.3228 14.3893C22.9486 15.5825 23.8661 16.5993 24.9904 17.3456C25.8537 17.8891 26.753 18.3737 27.6821 18.796C28.3991 18.669 29.1346 18.6892 29.8435 18.8555C30.5524 19.0218 31.2197 19.3306 31.8047 19.7629C30.7789 19.3237 29.6685 19.1157 28.5527 19.1538L28.8437 19.2626C29.2366 19.4148 29.6343 19.5526 30.0344 19.6904C30.4758 19.8403 30.9195 19.9587 31.4409 20.1255C30.8843 20.1902 30.3332 20.2952 29.7919 20.4398C29.5304 20.5609 29.254 20.6471 28.9698 20.696C29.6585 20.7323 30.3012 20.8894 31.2687 21.4599C30.1241 20.9353 29.3578 21.032 28.1356 21.0127C26.706 21.5643 25.401 22.3943 24.2968 23.4542C24.9373 23.307 25.5948 23.2477 26.2514 23.2777C25.3554 23.7467 24.5081 24.303 23.7221 24.9384C23.8417 25.0314 23.9387 25.1502 24.0058 25.2858C24.073 25.4214 24.1087 25.5704 24.1101 25.7216H26.0719V26.5967C26.2708 26.3549 26.489 26.1325 26.7048 25.8908C26.7315 25.9343 26.7436 25.9488 26.7412 25.9537C26.7299 25.9851 26.7135 26.0145 26.6927 26.0407C26.4688 26.3443 26.2615 26.6598 26.0719 26.9858V29.3355C26.4696 29.466 26.8698 29.5772 27.2844 29.6836C27.0915 29.232 27.0044 28.7426 27.0298 28.2525C27.0298 28.0688 27.0735 27.8851 27.0953 27.7038C27.1499 28.4815 27.4437 29.2234 27.9368 29.8286H27.9659C28.092 29.8407 28.2084 29.8407 28.3393 29.8479C28.7394 29.8673 28.6812 31.4941 29.0668 31.5932C29.0668 31.5932 33.1602 32.6979 32.263 31.569C29.1493 27.653 30.3497 26.4154 30.825 25.4944C30.7843 25.6881 30.792 25.8889 30.8474 26.079C30.9028 26.2691 31.0042 26.4427 31.1426 26.5846C31.5209 26.9593 32.1587 27.1526 32.7722 27.5201C33.2063 27.7811 33.0148 27.653 33.4488 27.9238C34.4914 28.5368 35.3896 29.3661 36.0824 30.3556C36.6644 31.2403 36.6086 31.5255 35.7671 32.1806C35.7526 32.1806 35.7477 32.2193 35.7114 32.316L36.7493 32.2435C36.7496 32.3955 36.7118 32.5452 36.6394 32.679C36.567 32.8128 36.4622 32.9265 36.3346 33.0098C36.0921 33.179 35.8302 33.3071 35.5634 33.4618C36.3128 33.5706 37.0888 33.3893 37.5156 32.9227C37.6211 32.7938 37.7528 32.6886 37.902 32.6141C38.0512 32.5395 38.2146 32.4972 38.3813 32.49C38.5212 32.4797 38.6576 32.441 38.782 32.3764C38.9065 32.3118 39.0164 32.2226 39.1051 32.1143C39.1938 32.0059 39.2595 31.8807 39.2981 31.7462C39.3366 31.6118 39.3473 31.4709 39.3295 31.3321C39.182 31.3777 39.0312 31.4116 38.8784 31.4337C38.8399 31.429 38.803 31.4151 38.7709 31.3932C38.7388 31.3714 38.7125 31.3421 38.6941 31.308C38.6141 30.6771 38.1728 30.3096 37.7241 29.9446C37.3337 29.6231 36.9263 29.3185 36.5553 28.9777C36.2131 28.6733 35.9385 28.3011 35.7489 27.8848C35.5593 27.4686 35.459 27.0175 35.4543 26.5604C35.4332 26.4048 35.3586 26.2613 35.2433 26.1543C34.9523 25.8715 34.6371 25.6128 34.2733 25.2986C34.3286 25.2889 34.3846 25.2841 34.4407 25.2841C35.8063 25.986 37.3073 26.3874 38.8421 26.4613C39.0703 26.4478 39.2951 26.5212 39.4711 26.6665C39.6471 26.8119 39.7612 27.0185 39.7903 27.2445L40.154 26.645C40.4256 26.8746 40.6924 27.1043 41.0513 27.4137C41.1555 27.2953 41.2719 27.1551 41.3956 27.01C41.6527 27.6023 41.335 28.1413 41.0901 28.736C41.8418 28.4942 42.4723 28.2042 42.7706 27.4548H42.8603C42.9428 27.7691 43.0277 28.0833 43.1028 28.4217C43.33 28.4167 43.5536 28.3643 43.7591 28.2676C43.9647 28.171 44.1476 28.0325 44.2959 27.8609C44.3444 27.8053 44.4148 27.7255 44.473 27.728C44.7979 27.728 44.8973 27.5104 44.8998 27.2711C44.9237 26.7961 44.8927 26.32 44.8076 25.8521ZM39.9309 23.9642L37.7872 23.0722C37.7314 23.43 37.6781 23.7805 37.6223 24.1407L34.7802 21.8297L36.9263 22.7193C36.9821 22.364 37.0354 22.011 37.0912 21.6533L39.9285 23.9642C39.9285 23.9642 39.9333 23.9642 39.9309 23.9642Z" fill="white"/>
<path fill-rule="evenodd" clip-rule="evenodd" d="M36.6401 27.4111C38.1145 27.2733 39.3077 27.706 40.0546 29.0549C40.3155 29.5666 40.7255 29.9879 41.2307 30.2635C41.6651 30.5027 42.1768 30.5607 42.654 30.4248C43.1312 30.2889 43.5349 29.9702 43.777 29.5383C43.8206 29.4634 43.8618 29.386 43.9225 29.2797C44.2498 29.5988 44.4075 29.9323 44.2401 30.3578C45.5933 31.0056 45.9207 31.5664 45.5618 32.6276C45.1398 31.7647 44.3953 31.7115 43.5781 31.7647C42.907 31.819 42.2329 31.8287 41.5605 31.7937C41.215 31.7709 40.881 31.6612 40.5896 31.4748C40.2982 31.2884 40.0591 31.0313 39.8945 30.7276C39.652 30.3215 39.4362 29.9009 39.2228 29.4827C38.9871 28.983 38.6443 28.5409 38.2186 28.1875C37.7929 27.8342 37.2947 27.5782 36.759 27.4377L36.6401 27.4111Z" fill="#B60000"/>
<path fill-rule="evenodd" clip-rule="evenodd" d="M36.6401 27.4111C38.1145 27.2733 39.3077 27.706 40.0546 29.0549C40.3155 29.5666 40.7255 29.9879 41.2307 30.2635C41.6651 30.5027 42.1768 30.5607 42.654 30.4248C43.1312 30.2889 43.5349 29.9702 43.777 29.5383C43.8206 29.4634 43.8618 29.386 43.9225 29.2797C44.2498 29.5988 44.4075 29.9323 44.2401 30.3578C45.5933 31.0056 45.9207 31.5664 45.5618 32.6276C45.1398 31.7647 44.3953 31.7115 43.5781 31.7647C42.907 31.819 42.2329 31.8287 41.5605 31.7937C41.215 31.7709 40.881 31.6612 40.5896 31.4748C40.2982 31.2884 40.0591 31.0313 39.8945 30.7276C39.652 30.3215 39.4362 29.9009 39.2228 29.4827C38.9871 28.983 38.6443 28.5409 38.2186 28.1875C37.7929 27.8342 37.2947 27.5782 36.759 27.4377L36.6401 27.4111Z" fill="#673EB8"/>
<path fill-rule="evenodd" clip-rule="evenodd" d="M45.1907 31.5716C44.7993 31.3031 44.3287 31.1737 43.8545 31.2042C43.7381 31.2042 43.612 31.2042 43.4641 31.2162C43.1052 31.238 42.6808 31.2598 42.2516 31.2598C42.0091 31.2598 41.8078 31.2598 41.6041 31.2404C41.335 31.2295 41.0726 31.1536 40.8395 31.0193C40.6063 30.885 40.4093 30.6962 40.2655 30.4693C40.0375 30.1236 39.8314 29.7683 39.6398 29.4323C39.3743 28.9562 39.0077 28.5437 38.5656 28.2236C39.1264 28.4194 39.5991 28.8075 39.8993 29.3187C40.1857 29.8142 40.6172 30.2107 41.1361 30.4548C41.45 30.6027 41.7928 30.6795 42.14 30.6796C42.4668 30.6819 42.7898 30.6094 43.0841 30.4678C43.3784 30.3262 43.6361 30.1191 43.8375 29.8626C43.864 29.9146 43.8777 29.9722 43.8777 30.0306C43.8777 30.0889 43.864 30.1465 43.8375 30.1986L43.7357 30.4403L43.9782 30.5467C44.8512 30.9068 45.1616 31.1993 45.1907 31.5716Z" fill="#B85FEE"/>
<path d="M38.631 31.1942C38.631 31.1942 38.8735 31.0661 38.6165 30.1982C38.5293 30.4156 38.3942 30.6105 38.2212 30.7687" fill="white"/>
<path d="M38.0782 30.6068C38.0782 30.6068 38.3207 30.4908 38.1 29.6133C38.005 29.8271 37.8633 30.017 37.6853 30.1693" fill="white"/>
<path d="M37.4258 30.0508C37.4258 30.0508 37.695 29.971 37.5907 29.0693C37.4667 29.2641 37.3011 29.4292 37.1057 29.5528" fill="white"/>
<path d="M36.805 29.5869C36.805 29.5869 37.0741 29.5071 36.9699 28.6055C36.8451 28.7997 36.6797 28.9646 36.4849 29.0889" fill="white"/>
<path d="M31.7974 19.7358L31.4361 20.7825L31.3197 21.133C30.7086 20.768 30.226 20.4803 29.7822 20.4803C28.6521 20.2386 27.7791 20.5166 25.6839 20.154C23.6906 19.8083 23.0164 18.2201 22.7739 17.2532C22.74 17.1203 22.7181 16.9946 22.6987 16.8906C23.0213 17.333 24.92 19.7793 27.2165 19.2765C27.6518 19.1806 28.0951 19.1248 28.5406 19.1097C29.6559 19.0742 30.7656 19.2813 31.7925 19.7165L31.7974 19.7358Z" fill="black"/>
<path d="M35.379 19.4626C35.379 19.4626 32.794 18.7664 29.9082 15.8076C29.9082 15.8076 30.1507 17.9832 32.5272 19.5399" fill="#020202"/>
<path d="M43.68 25.1531C43.68 25.1531 43.7649 24.7034 42.9889 23.4609C42.9889 23.4609 43.0859 24.6406 42.6396 25.3948" fill="#020202"/>
<path d="M31.681 19.852L31.4385 20.7827L31.2663 21.4402C30.5798 20.9931 29.7864 20.7362 28.9674 20.6956C28.1477 20.657 27.2699 20.7682 25.6912 20.495C23.3365 20.0889 22.8102 17.9641 22.6938 17.1543C22.7205 17.1881 22.7496 17.2268 22.7836 17.2655C23.3874 18.0197 25.0946 19.852 27.1098 19.4096C27.6781 19.2847 28.2595 19.2287 28.8413 19.2428C29.8186 19.2599 30.7831 19.4669 31.681 19.852Z" fill="black"/>
<path d="M31.7973 19.7358L31.3123 21.4714L31.2566 21.44C30.5701 20.9929 29.7766 20.7359 28.9576 20.6954C28.138 20.6568 27.2601 20.768 25.6814 20.4948C23.3267 20.0887 22.8005 17.9639 22.6841 17.1541C22.6574 16.9583 22.6526 16.8398 22.6526 16.8398L22.6987 16.9075C23.0212 17.3475 24.92 19.7962 27.2165 19.2934C27.6518 19.1982 28.0951 19.1432 28.5405 19.129C29.656 19.0921 30.766 19.2992 31.7925 19.7358H31.7973Z" fill="white"/>
<path fill-rule="evenodd" clip-rule="evenodd" d="M44.4535 21.3776L44.4341 22.1028L44.2207 21.9046C44.1528 21.7402 44.08 21.5807 44.0073 21.4212C43.8981 21.1794 43.7866 20.9619 43.6678 20.7371C43.4519 20.3237 43.2167 19.9224 42.9669 19.5284C42.5745 18.9163 42.1427 18.3301 41.6744 17.7734C41.2109 17.222 40.711 16.7019 40.1782 16.2167C39.6398 15.7332 39.0554 15.2885 38.4807 14.8533C37.8862 14.4239 37.2567 14.0446 36.5988 13.7196L36.9214 14.6406L36.8898 14.66C36.8341 14.6019 36.7783 14.5415 36.7201 14.4835C36.221 13.9406 35.6499 13.4681 35.0226 13.079C34.2752 12.6638 33.4585 12.387 32.6121 12.262C32.2071 12.1895 31.7997 12.1315 31.3608 12.0614L32.0738 12.9509L32.0471 12.9824L31.5815 12.7527C30.7851 12.3477 29.93 12.0696 29.0473 11.9284C28.3174 11.8292 27.5765 11.8414 26.8503 11.9647C26.1882 12.071 25.5335 12.2064 24.8763 12.3393C24.8399 12.3393 24.806 12.3635 24.7429 12.3804L25.8512 12.8832C25.8499 12.8993 25.8499 12.9155 25.8512 12.9316C25.7881 12.9316 25.7226 12.9316 25.6596 12.9316C24.9709 12.9533 24.2797 12.9533 23.5935 13.0017C22.1761 13.108 20.8189 13.6163 19.6819 14.4666C19.2842 14.7518 18.8986 15.0572 18.5252 15.3827L20.0772 15.2643C20.0772 15.2788 20.0772 15.2933 20.0942 15.3078L19.939 15.3972C19.3085 15.7477 18.6683 16.0813 18.0499 16.4512C16.5747 17.3265 15.4366 18.6696 14.8173 20.2657C14.6573 20.667 14.5069 21.0682 14.3711 21.4743C15.0009 20.9926 15.6815 20.5809 16.4009 20.2463C16.3548 20.3092 16.3087 20.3745 16.2602 20.4373C15.6175 21.2819 15.0496 22.1805 14.5627 23.1229C13.8842 24.4325 13.5662 25.8981 13.6412 27.3701C13.7159 28.4636 13.9361 29.5423 14.2959 30.5779C14.4405 29.8684 14.6317 29.1691 14.8683 28.4845C14.975 29.113 15.0623 29.7077 15.1787 30.2975C15.4612 31.875 16.0054 33.3945 16.7889 34.7937C17.4297 35.9193 18.2985 36.8998 19.34 37.6727C19.3985 37.7169 19.462 37.7542 19.5291 37.7839C19.2084 37.1273 18.9439 36.4447 18.7386 35.7437C18.7774 35.7823 18.821 35.8186 18.8574 35.8573C19.9129 36.9736 21.1057 37.9523 22.4076 38.7701C24.377 39.9837 26.6725 40.5659 28.9843 40.4381C30.3392 40.3987 31.6775 40.1297 32.9419 39.6428C33.5388 39.4168 34.0833 39.0722 34.5424 38.6299C34.8072 38.3828 35.0108 38.0778 35.1371 37.7388C35.2633 37.3998 35.3088 37.0362 35.2699 36.6768C35.6094 36.435 35.9368 36.1594 36.2399 35.8839C36.661 35.5153 37.0548 35.1171 37.4185 34.6921C37.7454 34.3301 38.0355 33.9366 38.2842 33.5173C38.4952 33.4714 38.7038 33.4255 38.9123 33.3723C39.1657 33.3051 39.3883 33.1532 39.5428 32.942C39.7247 33.0774 39.9041 33.2152 40.0787 33.3626C40.6788 33.8451 41.1788 34.4396 41.5507 35.1128C41.8105 35.5773 41.9551 36.0969 41.9727 36.6284C41.6623 36.1449 41.3349 35.6977 40.7771 35.4439C41.5168 37.0829 41.5653 38.7798 41.3228 40.5203C41.1456 40.1262 40.8992 39.7668 40.5953 39.4591C40.5732 40.2056 40.3902 40.9387 40.0588 41.6085C39.7275 42.2784 39.2554 42.8693 38.6747 43.3413C38.7809 42.9279 38.8121 42.4989 38.7668 42.0746L38.6722 42.1447C37.2852 43.3591 35.6365 44.2392 33.8537 44.7167C31.8744 45.2591 29.817 45.4626 27.7693 45.3186C25.6989 45.1932 23.6573 44.7723 21.7068 44.0689C15.9134 42.0021 11.6963 36.9016 10.5008 31.0686C9.59869 26.779 10.3303 22.3083 12.5531 18.5268C14.776 14.7454 18.331 11.9238 22.526 10.6114C26.7211 9.29907 31.256 9.58984 35.2478 11.4271C39.2397 13.2644 42.4027 16.5167 44.1212 20.5509C44.2401 20.8217 44.3516 21.0972 44.4535 21.3776Z" fill="white"/>
<path d="M24.8157 27.097C24.8157 27.097 18.9715 32.519 20.7951 40.31C20.7951 40.31 28.3635 43.786 35.6337 39.3672C35.6337 39.3672 34.8771 35.3376 31.7974 30.9888L28.7176 26.6377" fill="white"/>
<path d="M23.3971 38.3518C23.3971 38.3518 22.3519 34.2424 25.3201 29.6133C25.3201 29.6133 23.2201 34.1119 24.7042 38.7797L23.3971 38.3518Z" fill="black"/>
<path d="M32.9444 38.2772C32.9444 38.2772 32.7916 35.2701 30.2769 32.4395C30.2769 32.4395 32.1829 35.2701 31.6737 38.5939L32.9444 38.2772Z" fill="black"/>
<path fill-rule="evenodd" clip-rule="evenodd" d="M35.35 35.0469C35.35 35.0469 34.5279 39.4246 24.8206 40.0845C24.8206 40.0845 33.9168 41.2037 36.6401 35.5158" fill="black"/>
<path d="M38.7765 42.0693C38.7765 42.0693 32.5854 46.0144 25.3201 42.913C25.3201 42.913 28.5793 46.1086 35.7307 45.1876" fill="black"/>
<path d="M25.1237 45.0328C25.1237 45.0328 17.8996 43.6912 14.7252 36.4756C14.7252 36.4756 14.9119 41.0274 20.7611 45.2335" fill="black"/>
<path fill-rule="evenodd" clip-rule="evenodd" d="M44.4826 20.4033L44.4535 21.3775L44.4341 22.1075L44.2207 21.9069L43.1901 20.9327L43.6678 20.7369L44.1213 20.5508L44.4826 20.4033Z" fill="white"/>
<defs>
<linearGradient id="paint0_linear_48_1733" x1="0.00291275" y1="27.498" x2="54.4421" y2="27.498" gradientUnits="userSpaceOnUse">
<stop stop-color="#643DB6"/>
<stop offset="1" stop-color="#B95FEE"/>
</linearGradient>
</defs>
</svg>
