<svg width="27" height="25" viewBox="25 27 27 25" fill="none" xmlns="http://www.w3.org/2000/svg">
<path d="M49.9697 27.7578L40.0152 35.1214L41.8712 30.7805L49.9697 27.7578Z" fill="#E17726" stroke="#E17726" stroke-width="0.25" stroke-linecap="round" stroke-linejoin="round"/>
<path d="M27.0152 27.7578L36.8788 35.1821L35.1136 30.7881L27.0152 27.7578ZM46.3864 44.826L43.7349 48.8714L49.4091 50.4321L51.0303 44.9169L46.3864 44.826ZM25.9621 44.9169L27.5758 50.4321L33.2349 48.8714L30.5985 44.826L25.9621 44.9169Z" fill="#E27625" stroke="#E27625" stroke-width="0.25" stroke-linecap="round" stroke-linejoin="round"/>
<path d="M32.9318 37.9924L31.3561 40.3712L36.9621 40.6288L36.7803 34.5909L32.9318 38V37.9924ZM44.053 38L40.1439 34.5151L40.0152 40.6288L45.6212 40.3712L44.053 38ZM33.2349 48.8712L36.6364 47.2348L33.7121 44.9621L33.2349 48.8712ZM40.3561 47.2273L43.7349 48.8712L43.2803 44.9545L40.3561 47.2273Z" fill="#E27625" stroke="#E27625" stroke-width="0.25" stroke-linecap="round" stroke-linejoin="round"/>
<path d="M43.7348 48.8712L40.3561 47.2349L40.6288 49.4318L40.5985 50.3637L43.7348 48.8712ZM33.2348 48.8712L36.3864 50.3637L36.3636 49.4318L36.6364 47.2349L33.2348 48.8712Z" fill="#D5BFB2" stroke="#D5BFB2" stroke-width="0.25" stroke-linecap="round" stroke-linejoin="round"/>
<path d="M36.4394 43.5L33.6364 42.6818L35.6212 41.7727L36.447 43.5H36.4394ZM40.5379 43.5L41.3712 41.7651L43.3636 42.6742L40.5379 43.5076V43.5Z" fill="#233447" stroke="#233447" stroke-width="0.25" stroke-linecap="round" stroke-linejoin="round"/>
<path d="M33.2348 48.8711L33.7273 44.8256L30.5985 44.9165L33.2348 48.8711ZM43.2576 44.8256L43.7348 48.8711L46.3864 44.9165L43.2576 44.8256ZM45.6288 40.3711L40.0227 40.6287L40.5379 43.5075L41.3712 41.765L43.3636 42.6741L45.6288 40.3711ZM33.6364 42.6817L35.6212 41.7726L36.447 43.4999L36.9697 40.6211L31.3636 40.3711L33.6364 42.6817Z" fill="#CC6228" stroke="#CC6228" stroke-width="0.25" stroke-linecap="round" stroke-linejoin="round"/>
<path d="M31.3636 40.3711L33.7121 44.9544L33.6364 42.6817L31.3636 40.3711ZM43.3636 42.6817L43.2727 44.9544L45.6212 40.3711L43.3636 42.6817ZM36.9697 40.6287L36.4394 43.5075L37.1061 46.9014L37.2576 42.4241L36.9697 40.6287ZM40.0151 40.6287L39.7424 42.4165L39.8788 46.9014L40.5379 43.4999L40.0151 40.6211V40.6287Z" fill="#E27525" stroke="#E27525" stroke-width="0.25" stroke-linecap="round" stroke-linejoin="round"/>
<path d="M40.5379 43.4998L39.8788 46.9013L40.3561 47.2347L43.2727 44.9619L43.3636 42.6816L40.5379 43.4998ZM33.6364 42.6816L33.7121 44.9544L36.6364 47.2271L37.1061 46.9013L36.447 43.4998L33.6288 42.6816H33.6364Z" fill="#F5841F" stroke="#F5841F" stroke-width="0.25" stroke-linecap="round" stroke-linejoin="round"/>
<path d="M40.6061 50.3635L40.6288 49.4317L40.3712 49.2196H36.6136L36.3636 49.4317L36.3864 50.3635L33.2348 48.8711L34.3409 49.7802L36.5758 51.3181H40.4015L42.6439 49.7726L43.7348 48.8711L40.5985 50.3635H40.6061Z" fill="#C0AC9D" stroke="#C0AC9D" stroke-width="0.25" stroke-linecap="round" stroke-linejoin="round"/>
<path d="M40.3561 47.2271L39.8788 46.9014H37.1061L36.6364 47.2347L36.3636 49.4317L36.6136 49.2195H40.3712L40.6288 49.4317L40.3561 47.2347V47.2271Z" fill="white" stroke="white" stroke-width="0.25" stroke-linecap="round" stroke-linejoin="round"/>
<path d="M50.3939 35.5987L51.2273 31.5457L49.9697 27.7578L40.3485 34.879L44.053 37.9927L49.2803 39.5154L50.4318 38.1745L49.9318 37.8108L50.7273 37.0836L50.1212 36.6139L50.9167 36.0078L50.3864 35.5987H50.3939ZM25.7576 31.5381L26.6061 35.5987L26.0606 36.0002L26.8712 36.6063L26.2651 37.0836L27.053 37.8108L26.553 38.1745L27.7045 39.5154L32.9318 38.0002L36.6364 34.8714L27.0151 27.7578L25.7576 31.5381Z" fill="#763E1A" stroke="#763E1A" stroke-width="0.25" stroke-linecap="round" stroke-linejoin="round"/>
<path d="M49.2803 39.5151L44.053 38L45.6288 40.3712L43.2803 44.9545L46.3864 44.9166H51.0303L49.2803 39.5151ZM32.9318 37.9924L27.7046 39.5151L25.9621 44.9166H30.6061L33.7121 44.9545L31.3636 40.3712L32.9394 37.9924H32.9318ZM40.0152 40.6288L40.3561 34.8712L41.8712 30.7803H35.1136L36.6288 34.8712L36.9697 40.6288L37.0985 42.4318V46.9015H39.8788L39.8939 42.4318L40.0152 40.6288Z" fill="#F5841F" stroke="#F5841F" stroke-width="0.25" stroke-linecap="round" stroke-linejoin="round"/>
<mask id="path-14-inside-1_0_3289" fill="white">
<path d="M0 0H6V6H0V0Z"/>
</mask>
<mask id="path-16-inside-2_0_3289" fill="white">
<path d="M180 0L180 6L174 6L174 -2.62268e-07L180 0Z"/>
</mask>
<g filter="url(#filter0_i_0_3289)">
</g>
<mask id="path-24-inside-3_0_3289" fill="white">
<path d="M180 80L174 80L174 74L180 74L180 80Z"/>
</mask>
<mask id="path-26-inside-4_0_3289" fill="white">
<path d="M0 80L7.86805e-07 74L6 74L6 80L0 80Z"/>
</mask>
<defs>
<filter id="filter0_i_0_3289" x="3" y="3" width="174" height="74" filterUnits="userSpaceOnUse" color-interpolation-filters="sRGB">
<feFlood flood-opacity="0" result="BackgroundImageFix"/>
<feBlend mode="normal" in="SourceGraphic" in2="BackgroundImageFix" result="shape"/>
<feColorMatrix in="SourceAlpha" type="matrix" values="0 0 0 0 0 0 0 0 0 0 0 0 0 0 0 0 0 0 127 0" result="hardAlpha"/>
<feOffset/>
<feGaussianBlur stdDeviation="8"/>
<feComposite in2="hardAlpha" operator="arithmetic" k2="-1" k3="1"/>
<feColorMatrix type="matrix" values="0 0 0 0 0.890196 0 0 0 0 0.694118 0 0 0 0 0.176471 0 0 0 0.2 0"/>
<feBlend mode="normal" in2="shape" result="effect1_innerShadow_0_3289"/>
</filter>
</defs>
</svg>
