<svg width="21" height="20" viewBox="0 0 21 20" fill="none" xmlns="http://www.w3.org/2000/svg">
<path opacity="0.4" d="M15.2751 6.47533C15.2167 6.467 15.1584 6.467 15.1001 6.47533C13.8084 6.43366 12.7834 5.37533 12.7834 4.07533C12.7834 2.75033 13.8584 1.66699 15.1917 1.66699C16.5167 1.66699 17.6001 2.74199 17.6001 4.07533C17.5917 5.37533 16.5667 6.43366 15.2751 6.47533Z" fill="white"/>
<path opacity="0.4" d="M17.9917 12.2503C17.0584 12.8753 15.7501 13.1087 14.5417 12.9503C14.8584 12.267 15.0251 11.5087 15.0334 10.7087C15.0334 9.87534 14.8501 9.08367 14.5001 8.392C15.7334 8.22534 17.0417 8.45866 17.9834 9.08366C19.3001 9.95033 19.3001 11.3753 17.9917 12.2503Z" fill="white"/>
<path opacity="0.4" d="M6.03343 6.47533C6.09177 6.467 6.1501 6.467 6.20844 6.47533C7.5001 6.43366 8.5251 5.37533 8.5251 4.07533C8.5251 2.75033 7.4501 1.66699 6.11677 1.66699C4.79177 1.66699 3.70844 2.74199 3.70844 4.07533C3.71677 5.37533 4.74177 6.43366 6.03343 6.47533Z" fill="white"/>
<path opacity="0.4" d="M6.12506 10.7079C6.12506 11.5162 6.30006 12.2829 6.61672 12.9745C5.44172 13.0995 4.21672 12.8495 3.31672 12.2579C2.00006 11.3829 2.00006 9.95784 3.31672 9.08284C4.20839 8.48284 5.46672 8.24118 6.65006 8.37452C6.30839 9.07452 6.12506 9.86619 6.12506 10.7079Z" fill="white"/>
<path d="M10.7667 13.225C10.7001 13.2167 10.6251 13.2167 10.5501 13.225C9.01675 13.175 7.79175 11.9167 7.79175 10.3667C7.79175 8.78334 9.06675 7.5 10.6584 7.5C12.2417 7.5 13.5251 8.78334 13.5251 10.3667C13.5251 11.9167 12.3084 13.175 10.7667 13.225Z" fill="white"/>
<path d="M8.05844 14.9502C6.8001 15.7919 6.8001 17.1752 8.05844 18.0085C9.49177 18.9669 11.8418 18.9669 13.2751 18.0085C14.5334 17.1669 14.5334 15.7835 13.2751 14.9502C11.8501 13.9919 9.5001 13.9919 8.05844 14.9502Z" fill="white"/>
</svg>
