<svg width="18" height="19" viewBox="0 0 18 19" fill="none" xmlns="http://www.w3.org/2000/svg">
<path opacity="0.4" d="M8.625 16.25C12.56 16.25 15.75 13.06 15.75 9.125C15.75 5.18997 12.56 2 8.625 2C4.68997 2 1.5 5.18997 1.5 9.125C1.5 13.06 4.68997 16.25 8.625 16.25Z" fill="#743EE8"/>
<path d="M15.975 16.9999C15.84 16.9999 15.705 16.9474 15.6075 16.8499L14.2125 15.4549C14.01 15.2524 14.01 14.9224 14.2125 14.7124C14.415 14.5099 14.745 14.5099 14.955 14.7124L16.35 16.1074C16.5525 16.3099 16.5525 16.6399 16.35 16.8499C16.245 16.9474 16.11 16.9999 15.975 16.9999Z" fill="#743EE8"/>
</svg>
