<svg width="21" height="20" viewBox="0 0 21 20" fill="none" xmlns="http://www.w3.org/2000/svg">
<path opacity="0.4" d="M10.3333 18.3336C14.9357 18.3336 18.6666 14.6027 18.6666 10.0003C18.6666 5.39795 14.9357 1.66699 10.3333 1.66699C5.73096 1.66699 2 5.39795 2 10.0003C2 14.6027 5.73096 18.3336 10.3333 18.3336Z" fill="white"/>
<path d="M12.4204 12.8728L13.4773 8.97852L10.3333 6.83887L7.18933 8.97852L8.24623 12.8728H12.4204Z" fill="white"/>
<path d="M13.3075 2.21579L10.3334 3.96579L7.35925 2.21579C9.2745 1.48406 11.3923 1.48406 13.3075 2.21579Z" fill="white"/>
<path d="M4.59484 8.13533L2.0115 10.4227C2.00288 10.2819 2.00001 10.1411 2.00001 10.0003C1.99695 8.09427 2.65046 6.24538 3.85058 4.76465L4.59484 8.13533Z" fill="white"/>
<path d="M8.16667 18.0488C6.18523 17.5147 4.47042 16.2685 3.35059 14.5488L6.78736 14.8822L8.16667 18.0488Z" fill="white"/>
<path d="M17.3161 14.5488C16.1963 16.2685 14.4814 17.5147 12.5 18.0488L13.8793 14.8822L17.3161 14.5488Z" fill="white"/>
<path d="M18.6667 10.0003C18.6667 10.1411 18.6639 10.2819 18.6552 10.4227L16.0719 8.13533L16.8162 4.76465C18.0163 6.24538 18.6698 8.09427 18.6667 10.0003Z" fill="white"/>
<path d="M17.0528 7.50926L10.6207 9.5969V3.10352H10.0459V9.59402L4.21147 7.70121L4.01147 8.24058L9.87612 10.1432L6.02297 15.4455L6.51434 15.7472L10.3333 10.4917L14.152 15.7472L14.6436 15.4463L10.7922 10.1455L17.2298 8.0561L17.0528 7.50926Z" fill="white"/>
</svg>
