<svg width="20" height="20" viewBox="0 0 20 20" fill="none" xmlns="http://www.w3.org/2000/svg">
<path opacity="0.4" d="M18.3334 7.67513V12.3251C18.3334 15.7418 17.2917 16.7835 13.875 16.7835H8.25838V14.2668C8.25838 13.9501 7.99172 13.6835 7.67505 13.6835V6.3168C7.99172 6.3168 8.25838 6.05013 8.25838 5.73346V3.2168H13.875C17.2917 3.2168 18.3334 4.25846 18.3334 7.67513Z" fill="white"/>
<path d="M15.3917 9.91641C15.5333 9.78307 15.5833 9.57474 15.525 9.39141C15.4667 9.19974 15.3083 9.06641 15.1083 9.04141L14.0417 8.88307C14 8.87474 13.9667 8.84974 13.95 8.81641L13.475 7.84974C13.3917 7.67474 13.2083 7.56641 13.0167 7.56641C12.8167 7.56641 12.6417 7.67474 12.55 7.84974L12.075 8.81641C12.0583 8.85807 12.0167 8.88307 11.975 8.88307L10.9083 9.04141C10.7167 9.06641 10.55 9.20807 10.4917 9.39141C10.4333 9.58307 10.4833 9.78307 10.625 9.91641L11.4 10.6664C11.4333 10.6914 11.4417 10.7414 11.4333 10.7831L11.25 11.8414C11.2167 12.0331 11.2917 12.2331 11.4583 12.3414C11.55 12.4081 11.65 12.4414 11.7583 12.4414C11.8417 12.4414 11.925 12.4247 12 12.3831L12.9583 11.8831C12.9917 11.8664 13.0417 11.8664 13.075 11.8831L14.0333 12.3831C14.2083 12.4747 14.4167 12.4581 14.575 12.3414C14.7333 12.2247 14.8167 12.0331 14.7833 11.8331L14.6 10.7747C14.5917 10.7331 14.6083 10.6914 14.6333 10.6581L15.3917 9.91641Z" fill="white"/>
<path d="M7.67502 6.3168V13.6835C7.35835 13.6835 7.09168 13.9501 7.09168 14.2668V16.7835H6.12502C2.83335 16.7835 1.75002 15.8001 1.67502 12.7335C1.66668 12.5751 1.73335 12.4251 1.84168 12.3168C1.95002 12.2001 2.10835 12.1418 2.25835 12.1418C3.42502 12.1418 4.38335 11.1835 4.38335 10.0085C4.38335 8.83346 3.42502 7.8668 2.25835 7.8668C2.09168 7.8668 1.95002 7.80846 1.84168 7.6918C1.73335 7.58346 1.66668 7.42513 1.67502 7.27513C1.75002 4.20013 2.83335 3.2168 6.12502 3.2168H7.09168V5.73346C7.09168 6.05846 7.35835 6.3168 7.67502 6.3168Z" fill="white"/>
</svg>
