<svg width="24" height="24" viewBox="0 0 24 24" fill="none" xmlns="http://www.w3.org/2000/svg">
<path d="M17.0901 11.0001H21.9501C21.7924 9.43218 21.2646 7.92414 20.4101 6.6001C19.5447 7.0139 18.7914 7.62958 18.2136 8.3953C17.6358 9.16102 17.2505 10.0544 17.0901 11.0001Z" fill="#636366"/>
<path d="M6.91005 11.0001C6.74962 10.0544 6.3643 9.16102 5.78653 8.3953C5.20875 7.62958 4.45545 7.0139 3.59005 6.6001C2.73557 7.92414 2.20775 9.43218 2.05005 11.0001H6.91005Z" fill="#636366"/>
<path d="M15.07 11C15.2265 9.7509 15.6758 8.55637 16.3813 7.51373C17.0868 6.47109 18.0286 5.60982 19.13 5.00005C17.4958 3.32838 15.326 2.28421 13 2.05005V11H15.07Z" fill="#636366"/>
<path d="M8.93012 11H11.0001V2.05005C8.67349 2.28204 6.50303 3.32655 4.87012 5.00005C5.9715 5.60982 6.91329 6.47109 7.61881 7.51373C8.32433 8.55637 8.77363 9.7509 8.93012 11Z" fill="#636366"/>
<path d="M15.07 13H13V21.95C15.3266 21.718 17.4971 20.6735 19.13 19C18.0286 18.3902 17.0868 17.529 16.3813 16.4863C15.6758 15.4437 15.2265 14.2491 15.07 13Z" fill="#636366"/>
<path d="M3.59005 17.4C4.45339 16.9834 5.20493 16.3668 5.78232 15.6016C6.35971 14.8364 6.74632 13.9445 6.91005 13H2.05005C2.21005 14.61 2.76005 16.11 3.59005 17.4Z" fill="#636366"/>
<path d="M17.0901 13C17.2505 13.9457 17.6358 14.8391 18.2136 15.6048C18.7914 16.3705 19.5447 16.9862 20.4101 17.4C21.2646 16.076 21.7924 14.5679 21.9501 13H17.0901Z" fill="#636366"/>
<path d="M8.93012 13C8.77363 14.2491 8.32433 15.4437 7.61881 16.4863C6.91329 17.529 5.9715 18.3902 4.87012 19C6.50435 20.6717 8.6741 21.7158 11.0001 21.95V13H8.93012Z" fill="#636366"/>
</svg>
