<svg width="24" height="24" viewBox="0 0 24 24" fill="none" xmlns="http://www.w3.org/2000/svg">
<path d="M21.4153 4.04297C21.2218 3.33203 20.6452 2.77344 19.9113 2.58203C18.9476 2.33203 17.4435 2.03516 15.6855 2L22 8.125C21.9677 6.42578 21.6694 4.97656 21.4153 4.04297ZM2.58468 19.332C2.77823 20.043 3.35484 20.6016 4.08871 20.793C5.05242 21.043 6.55645 21.3398 8.31452 21.375L2 15.25C2.03226 16.9492 2.33065 18.3984 2.58468 19.332ZM2.16935 12.7578L10.8871 21.2188C16.2298 20.4609 20.9194 16.582 21.8347 10.6172L13.1129 2.15625C7.77016 2.91406 3.08065 6.79297 2.16935 12.7578ZM14.9637 7.92969C15.0887 7.80859 15.2944 7.80859 15.4194 7.92969L15.875 8.37109C16 8.49219 16 8.69141 15.875 8.8125L14.7339 9.91797L15.875 11.0234C16 11.1445 16 11.3438 15.875 11.4648L15.4194 11.9062C15.2944 12.0273 15.0887 12.0273 14.9637 11.9062L13.8226 10.8008L12.9113 11.6875L14.0524 12.793C14.1774 12.9141 14.1774 13.1133 14.0524 13.2344L13.5968 13.6758C13.4718 13.7969 13.2661 13.7969 13.1411 13.6758L12 12.5703L11.0887 13.4531L12.2298 14.5586C12.3548 14.6797 12.3548 14.8789 12.2298 15L11.7742 15.4414C11.6492 15.5625 11.4435 15.5625 11.3185 15.4414L10.1774 14.3359L9.03629 15.4414C8.91129 15.5625 8.70564 15.5625 8.58064 15.4414L8.125 15C8 14.8789 8 14.6797 8.125 14.5586L9.26613 13.4531L8.125 12.3516C8 12.2305 8 12.0312 8.125 11.9102L8.58064 11.4688C8.70564 11.3477 8.91129 11.3477 9.03629 11.4688L10.1774 12.5742L11.0887 11.6914L9.94758 10.5859C9.82258 10.4648 9.82258 10.2656 9.94758 10.1445L10.4032 9.70312C10.5282 9.58203 10.7339 9.58203 10.8589 9.70312L12 10.8086L12.9113 9.92578L11.7702 8.82031C11.6452 8.69922 11.6452 8.5 11.7702 8.37891L12.2258 7.9375C12.3508 7.81641 12.5565 7.81641 12.6815 7.9375L13.8226 9.04297L14.9637 7.92969Z" fill="#743EE8"/>
</svg>
