<svg width="20" height="20" viewBox="0 0 20 20" fill="none" xmlns="http://www.w3.org/2000/svg">
<path d="M6.64234 17.1665C13.6129 17.1665 17.4249 11.3962 17.4249 6.39234C17.4249 6.22845 17.4216 6.06529 17.4142 5.90287C18.1541 5.36836 18.7973 4.70134 19.3046 3.94202C18.6255 4.2436 17.8948 4.44663 17.1283 4.53817C17.9107 4.06937 18.5114 3.32778 18.7947 2.44372C18.0625 2.87746 17.2517 3.1927 16.3883 3.3629C15.6968 2.62687 14.7122 2.1665 13.6221 2.1665C11.5293 2.1665 9.83219 3.86234 9.83219 5.9527C9.83219 6.24985 9.86544 6.53888 9.93046 6.81613C6.78079 6.65777 3.98791 5.15095 2.11875 2.85974C1.79329 3.41934 1.60562 4.06939 1.60562 4.763C1.60562 6.07675 2.27467 7.23654 3.29206 7.91504C2.6703 7.89584 2.08624 7.7253 1.57575 7.44143C1.57519 7.45732 1.57519 7.47281 1.57519 7.48979C1.57519 9.32368 2.88148 10.8548 4.61551 11.2018C4.29707 11.2885 3.96203 11.335 3.61622 11.335C3.37241 11.335 3.13486 11.3111 2.90398 11.2668C3.38644 12.7713 4.78547 13.8662 6.44413 13.8968C5.14708 14.9127 3.51315 15.5177 1.73734 15.5177C1.43182 15.5177 1.13001 15.5003 0.833374 15.4653C2.51057 16.5395 4.50209 17.1663 6.64254 17.1663" fill="white"/>
</svg>
